<svg width="45" height="45" viewBox="0 0 45 45" fill="none" xmlns="http://www.w3.org/2000/svg">
<path fill-rule="evenodd" clip-rule="evenodd" d="M22.5 0C10.0736 0 0 10.0736 0 22.5C0 29.9643 3.63471 36.5796 9.23077 40.6727V33.3319H10.8374C11.3729 36.1545 12.8092 38.2244 15.1461 39.5416C17.5316 40.8118 20.2337 41.4469 23.2522 41.4469C25.8325 41.4469 27.9503 40.8824 29.6056 39.7533C31.261 38.6243 32.0886 36.9307 32.0886 34.6726C32.0886 33.6376 31.8452 32.6968 31.3583 31.85C30.9202 31.0032 30.2142 30.227 29.2405 29.5213C28.3155 28.7686 27.4148 28.157 26.5385 27.6866C25.6621 27.1691 24.518 26.5575 23.1061 25.8519C21.7429 25.0992 20.6962 24.5111 19.9659 24.0877C18.2619 23.0528 16.9961 22.2765 16.1685 21.7591C15.3408 21.1945 14.2697 20.3713 12.9552 19.2893C11.6894 18.2072 10.7644 17.0782 10.1801 15.9021C9.59591 14.726 9.3038 13.4558 9.3038 12.0915C9.3038 9.31596 10.6183 6.79911 13.2473 4.541C15.8763 2.2829 18.8218 1.15385 22.0837 1.15385C23.4956 1.15385 25.2483 1.50667 27.3418 2.21233C29.4352 2.91799 30.628 3.27082 30.9202 3.27082C31.4738 3.27082 31.7651 2.84829 31.7941 2.00322C28.9611 0.716566 25.8142 0 22.5 0ZM33.5611 2.90204L34.2064 10.8214H32.5998C32.3077 8.75143 31.2366 7.03433 29.3866 5.67006C27.5365 4.25874 25.1266 3.55308 22.1568 3.55308C19.9172 3.55308 18.1159 4.25874 16.7527 5.67006C15.4382 7.03433 14.7809 8.42212 14.7809 9.83344C14.7809 10.7273 15 11.5741 15.4382 12.3738C15.8763 13.1265 16.5579 13.8322 17.483 14.4908C18.408 15.1494 19.2843 15.7374 20.112 16.2549C20.9396 16.7254 22.0351 17.3134 23.3982 18.0191C24.8101 18.7247 25.8812 19.2893 26.6115 19.7127C28.6076 20.8887 30.0438 21.7591 30.9202 22.3236C31.7965 22.8881 32.9163 23.7584 34.2795 24.9345C35.6913 26.1106 36.665 27.3338 37.2006 28.6039C37.7848 29.8271 38.0769 31.1914 38.0769 32.6968C38.0769 36.178 36.6164 38.9065 33.6952 40.8824C30.7741 42.8582 27.4391 43.8462 23.6904 43.8462C21.3048 43.8462 18.8705 43.4933 16.3875 42.7877C13.9046 42.082 12.6144 41.7292 12.517 41.7292C12.2295 41.7292 11.8947 41.866 11.5127 42.1395C14.7621 43.9613 18.5098 45 22.5 45C34.9264 45 45 34.9264 45 22.5C45 14.0941 40.3904 6.7648 33.5611 2.90204Z" fill="#CEBC96"/>
</svg>
