<svg width="90" height="55" viewBox="0 0 90 55" fill="none" xmlns="http://www.w3.org/2000/svg">
<path d="M34.8184 10H31.2729V45.4545H34.8184V10Z" fill="#323232"/>
<path d="M11.7727 10H10V45.4545H11.7727V10Z" fill="#323232"/>
<path d="M17.0911 10H15.3184V45.4545H17.0911V10Z" fill="#323232"/>
<path d="M27.7273 10H25.9546V45.4545H27.7273V10Z" fill="#323232"/>
<path d="M24.1819 10H22.4092V45.4545H24.1819V10Z" fill="#323232"/>
<path d="M41.9092 10H38.3638V45.4545H41.9092V10Z" fill="#323232"/>
<path d="M20.6365 10H18.8638V45.4545H20.6365V10Z" fill="#323232"/>
<path d="M61.4093 10H54.3184V45.4545H61.4093V10Z" fill="#323232"/>
<path d="M75.5909 10H68.5V45.4545H75.5909V10Z" fill="#323232"/>
<path d="M52.5455 10H49V45.4545H52.5455V10Z" fill="#323232"/>
<path d="M66.7271 10H63.1816V45.4545H66.7271V10Z" fill="#323232"/>
<path d="M80.9092 10H77.3638V45.4545H80.9092V10Z" fill="#323232"/>
<path d="M45.4544 10H43.6816V45.4545H45.4544V10Z" fill="#323232"/>
<rect x="1.5" y="1.5" width="87" height="52" rx="8.5" stroke="#323232" stroke-width="3"/>
</svg>
