<svg width="39" height="58" viewBox="0 0 39 58" fill="none" xmlns="http://www.w3.org/2000/svg">
<g id="Group">
<path id="Vector" d="M33.3609 22.4161C33.4137 22.426 33.4663 22.4308 33.5182 22.4308C33.9191 22.4308 34.2759 22.1458 34.3523 21.7374C34.463 21.1469 34.5716 20.5421 34.6751 19.9398C34.7546 19.4773 34.4441 19.0381 33.9817 18.9585C33.5189 18.8797 33.0799 19.1895 33.0004 19.6519C32.8984 20.2459 32.7913 20.8423 32.6822 21.4246C32.5958 21.8858 32.8997 22.3298 33.3609 22.4161Z" fill="url(#paint0_linear_188_262)"/>
<path id="Vector_2" d="M34.4114 16.1567C34.4502 16.1619 34.4887 16.1645 34.5266 16.1645C34.9451 16.1645 35.3098 15.8552 35.3675 15.4289C35.4487 14.8298 35.5271 14.2206 35.6004 13.6183C35.6571 13.1526 35.3254 12.7289 34.8596 12.6722C34.394 12.6159 33.9703 12.9473 33.9136 13.4131C33.8412 14.0077 33.7639 14.6091 33.6836 15.2007C33.6206 15.6655 33.9465 16.0936 34.4114 16.1567Z" fill="url(#paint1_linear_188_262)"/>
<path id="Vector_3" d="M37.3731 9.34329C37.0017 6.50968 36.6175 3.57956 36.5127 0.817546C36.4949 0.348677 36.1007 -0.0155206 35.6314 0.000791804C35.1626 0.0185769 34.7969 0.413134 34.8147 0.882003C34.8827 2.6732 35.0628 4.51582 35.2808 6.3529C34.8811 6.39606 34.5583 6.71982 34.5277 7.13465C34.4839 7.72801 34.4352 8.3326 34.3827 8.93128C34.3419 9.39868 34.6876 9.81091 35.155 9.8518C35.1802 9.85396 35.2052 9.85509 35.2301 9.85509C35.4056 9.85509 35.5702 9.80026 35.7071 9.70681C36.4849 15.6411 37.2678 21.7589 35.5059 26.7345C29.4696 22.5774 22.8715 19.9438 18.323 18.4507C17.8772 18.3045 17.3972 18.5471 17.2508 18.993C17.1045 19.4389 17.3474 19.9188 17.7931 20.0652C21.5162 21.2874 26.6427 23.2899 31.6613 26.2869C31.5598 26.7218 31.4566 27.1554 31.3517 27.5804C31.2392 28.0359 31.5173 28.4964 31.9728 28.6088C32.0412 28.6257 32.1097 28.6339 32.1772 28.6339C32.5588 28.6339 32.9058 28.3748 33.0013 27.9877C33.0629 27.7383 33.124 27.485 33.1846 27.2312C33.7374 27.5866 34.2869 27.9543 34.8313 28.3349C33.916 30.2032 32.8044 31.4812 31.8041 32.6282C31.7737 32.663 31.7439 32.6974 31.7137 32.732C31.7444 32.619 31.7752 32.5059 31.8078 32.3924C31.9369 31.9413 31.6758 31.4709 31.2248 31.3419C30.7734 31.2128 30.3033 31.4738 30.1743 31.9248C30.0501 32.3587 29.9386 32.7901 29.8398 33.2142C21.1596 30.5405 13.9968 31.202 9.43344 32.2735C6.22125 33.0277 3.85176 34.0636 2.47245 34.7697C2.93826 29.6349 5.76972 25.8311 9.00569 21.4869C9.76672 20.4653 10.5585 19.4018 11.3523 18.2766C11.8736 18.3898 12.9229 18.6307 14.3391 19.0213C14.4146 19.0422 14.4906 19.0521 14.5654 19.0521C14.9381 19.0521 15.2801 18.8048 15.384 18.4282C15.5087 17.9758 15.2432 17.508 14.7908 17.3833C13.7942 17.1085 12.9792 16.9066 12.3888 16.7685C13.8469 14.5838 15.2675 12.1565 16.4672 9.35711C17.9399 5.92051 17.4607 0.973307 17.4396 0.764304C17.3923 0.297474 16.9765 -0.0430479 16.5088 0.00441679C16.042 0.0516549 15.7018 0.468302 15.749 0.935132C15.7537 0.981917 16.2071 5.65011 14.9052 8.68762C12.8517 13.4794 10.2038 17.034 7.64293 20.4717C3.91995 25.4695 0.70459 29.7858 0.70459 36.2645C0.70459 39.1164 1.52871 42.036 3.15406 44.9421C4.50222 47.3526 6.12712 49.2535 7.25279 50.4238C7.99693 51.1973 8.49129 52.1753 8.68262 53.2524L9.40116 57.2988C9.47422 57.7106 9.83253 58 10.2366 58C10.2859 58 10.3359 57.9957 10.3861 57.9867C10.8481 57.9047 11.1561 57.4637 11.0741 57.0018L10.3555 52.9554C10.1052 51.5456 9.45576 50.2628 8.47735 49.2458C3.50761 44.0796 2.5138 39.3522 2.41298 36.7361C3.34539 36.1957 5.93171 34.841 9.82166 33.9276C14.2868 32.8792 21.3663 32.2437 29.9686 35.0363C29.5888 35.7175 29.3343 36.4532 29.2811 37.3219C29.2808 37.3275 29.2805 37.3329 29.2802 37.3385L28.4582 57.1149C28.4387 57.5838 28.8029 57.9796 29.2717 57.9991C29.2838 57.9995 29.2956 57.9998 29.3077 57.9998C29.7607 57.9998 30.137 57.6423 30.1559 57.1855L30.9775 37.4178C31.0634 36.0625 31.9116 35.0899 33.0845 33.7449C34.3006 32.3504 35.814 30.6149 36.9081 27.8355C39.0756 22.3292 38.2102 15.7276 37.3731 9.34329Z" fill="url(#paint2_linear_188_262)"/>
</g>
<defs>
<linearGradient id="paint0_linear_188_262" x1="33.6775" y1="19.0544" x2="35.8517" y2="22.3747" gradientUnits="userSpaceOnUse">
<stop stop-color="#E0D1B0"/>
<stop offset="1" stop-color="#BDAA80"/>
</linearGradient>
<linearGradient id="paint1_linear_188_262" x1="34.6413" y1="12.7745" x2="36.8651" y2="16.008" gradientUnits="userSpaceOnUse">
<stop stop-color="#E0D1B0"/>
<stop offset="1" stop-color="#BDAA80"/>
</linearGradient>
<linearGradient id="paint2_linear_188_262" x1="19.4884" y1="1.79867" x2="53.9346" y2="60.5758" gradientUnits="userSpaceOnUse">
<stop stop-color="#E0D1B0"/>
<stop offset="1" stop-color="#BDAA80"/>
</linearGradient>
</defs>
</svg>
