<svg width="60" height="53" viewBox="0 0 60 53" fill="none" xmlns="http://www.w3.org/2000/svg">
<g id="Vector">
<path d="M24.3861 3.2C26.8812 -1.06667 33.1188 -1.06666 35.6139 3.2L59.1219 43.4C61.6169 47.6667 58.4981 53 53.508 53H6.49199C1.50189 53 -1.61691 47.6667 0.878138 43.4L24.3861 3.2Z" fill="#FFC855"/>
<path d="M28.244 41.2672C27.7384 40.7403 27.4856 40.144 27.4856 39.4784C27.4856 38.8128 27.7103 38.2165 28.1597 37.6896C28.6372 37.1349 29.2412 36.8576 29.9715 36.8576C30.6176 36.8576 31.2075 37.1072 31.7412 37.6064C32.2749 38.1056 32.5418 38.688 32.5418 39.3536C32.5418 40.0192 32.303 40.6293 31.8255 41.184C31.3479 41.7387 30.744 42.016 30.0137 42.016C29.3676 42.016 28.7777 41.7664 28.244 41.2672ZM30.9406 31.0336C30.7159 32.9195 30.3929 33.8624 29.9715 33.8624C29.5502 33.8624 29.2271 32.9195 29.0024 31.0336C28.9181 30.5067 28.7075 28.3296 28.3704 24.5024C28.0614 20.6752 27.9069 18.2624 27.9069 17.264C27.9069 16.6539 28.0895 16.1963 28.4547 15.8912C28.8479 15.5584 29.3535 15.392 29.9715 15.392C30.5895 15.392 31.0811 15.5584 31.4463 15.8912C31.8395 16.1963 32.0361 16.6539 32.0361 17.264C32.0361 18.2624 31.8676 20.6891 31.5305 24.544C31.2215 28.3989 31.0249 30.5621 30.9406 31.0336Z" fill="#323232"/>
</g>
</svg>
