<svg width="50" height="55" viewBox="0 0 50 55" fill="none" xmlns="http://www.w3.org/2000/svg">
<g id="Group">
<g id="Group_2">
<g id="Vector">
<mask id="path-1-inside-1_192_284" fill="white">
<path d="M42.987 23.799C42.6786 19.3016 40.6179 15.1837 37.1848 12.204C35.1723 10.4572 32.7837 9.20595 30.2237 8.54971C30.289 8.21616 30.3233 7.87177 30.3233 7.51953V5.37109C30.3233 2.40947 27.902 0 24.9258 0C21.9496 0 19.5282 2.40947 19.5282 5.37109V7.51953C19.5282 7.87177 19.5626 8.21616 19.6279 8.54971C17.0682 9.20573 14.6792 10.4572 12.6667 12.204C9.23354 15.1838 7.17287 19.3016 6.86445 23.799L6.65114 26.9071C6.58238 27.9091 6.9099 28.8777 7.57325 29.6346C8.23672 30.3915 9.15657 30.8459 10.1633 30.9142C10.2512 30.9202 10.3388 30.9232 10.4263 30.9232C11.0304 30.9231 11.6164 30.781 12.1451 30.5102C12.105 32.2335 12.2994 33.9575 12.49 35.647C12.7771 38.1937 13.0484 40.5991 12.4811 42.7058C12.3942 43.0284 12.4631 43.3728 12.6674 43.6378C12.8718 43.9027 13.1883 44.058 13.5239 44.058H15.4398L17.6027 50.8076C18.4943 53.5894 20.1082 55 22.3996 55C23.4805 55 24.326 54.6455 24.9258 54.1003C25.5256 54.6455 26.371 55 27.4519 55C29.7435 55 31.3574 53.5894 32.2488 50.8075L34.4117 44.0579H36.3275C36.663 44.0579 36.9797 43.9026 37.184 43.6377C37.3884 43.3727 37.4571 43.0283 37.3703 42.7057C36.803 40.5991 37.0744 38.1936 37.3616 35.647C37.5521 33.9576 37.7464 32.2335 37.7064 30.5101C38.235 30.781 38.8212 30.9231 39.4253 30.9231C39.5126 30.923 39.6003 30.9201 39.6882 30.9141C40.6951 30.8458 41.6149 30.3914 42.2783 29.6345C42.9417 28.8776 43.2692 27.9091 43.2004 26.9069L42.987 23.799ZM21.6873 5.37109C21.6873 3.59412 23.1401 2.14844 24.9258 2.14844C26.7115 2.14844 28.1643 3.59412 28.1643 5.37109V7.51953C28.1643 9.2965 26.7115 10.7422 24.9258 10.7422C23.1401 10.7422 21.6873 9.2965 21.6873 7.51953V5.37109ZM11.4852 28.3774C11.1592 28.6603 10.7416 28.7993 10.3105 28.7707C9.87897 28.7415 9.48474 28.5466 9.2005 28.2223C8.91616 27.8979 8.77582 27.4828 8.80529 27.0533L9.0186 23.9452C9.14966 22.0348 9.64332 20.2027 10.4613 18.525L13.2742 20.1473C12.6963 21.3987 12.3463 22.7546 12.2496 24.1647L12.0364 27.2728C12.0069 27.7023 11.8111 28.0945 11.4852 28.3774ZM22.3996 52.8516C21.0849 52.8516 20.2654 52.045 19.6597 50.1548L17.706 44.0579H23.8463V51.6203C23.8463 51.9091 23.742 52.8516 22.3996 52.8516ZM30.1918 50.1548C29.5861 52.045 28.7668 52.8516 27.452 52.8516C26.1097 52.8516 26.0053 51.9091 26.0053 51.6203V44.0579H32.1455L30.1918 50.1548ZM35.2158 35.4073C34.9718 37.5721 34.7208 39.7976 35.0132 41.9094H14.8383C15.1308 39.7976 14.8798 37.5721 14.6357 35.4073C14.3719 33.068 14.1001 30.6575 14.5157 28.4202H20.0677C20.6639 28.4202 21.1472 27.9391 21.1472 27.346C21.1472 26.7528 20.6639 26.2717 20.0677 26.2717H14.2691L14.4036 24.311C14.5329 22.4245 15.2207 20.6564 16.3753 19.1888C17.1445 20.6312 18.6698 21.6159 20.422 21.6159C21.2244 21.6159 22.0159 21.4049 22.7107 21.0056C23.2271 20.709 23.404 20.0521 23.1059 19.5383C22.8079 19.0244 22.1477 18.8482 21.6313 19.1451C21.2642 19.3559 20.846 19.4674 20.422 19.4674C19.0883 19.4674 18.0033 18.3877 18.0033 17.0607C18.0033 16.6395 17.7559 16.2572 17.3707 16.0828C16.9855 15.9085 16.5333 15.9743 16.2143 16.2511C15.5074 16.8646 14.8858 17.5483 14.3564 18.2881L11.5441 16.6662C12.2559 15.6281 13.107 14.6726 14.086 13.8229C15.9256 12.2262 18.1237 11.1036 20.475 10.5546C21.4487 11.9644 23.0806 12.8906 24.9258 12.8906C26.771 12.8906 28.4029 11.9644 29.3767 10.5547C31.7282 11.1038 33.9259 12.2263 35.7655 13.823C36.7445 14.6728 37.5956 15.6282 38.3074 16.6664L35.4951 18.2884C34.9657 17.5485 34.344 16.8648 33.6373 16.2513C33.3184 15.9745 32.8661 15.9086 32.4808 16.083C32.0955 16.2573 31.8482 16.6398 31.8482 17.061C31.8482 18.388 30.7632 19.4676 29.4296 19.4676C29.0056 19.4676 28.5874 19.3561 28.2203 19.1453C27.7039 18.8486 27.0437 19.0247 26.7457 19.5384C26.4476 20.0522 26.6245 20.7092 27.1408 21.0058C27.8358 21.4051 28.6272 21.6161 29.4296 21.6161C31.1816 21.6161 32.7071 20.6314 33.4762 19.189C34.6309 20.6566 35.3186 22.4247 35.448 24.3112L35.5826 26.272H29.7832C29.1871 26.272 28.7037 26.753 28.7037 27.3462C28.7037 27.9394 29.1871 28.4204 29.7832 28.4204H35.336C35.7514 30.6576 35.4797 33.068 35.2158 35.4073ZM40.6511 28.2223C40.3667 28.5467 39.9726 28.7415 39.5411 28.7707C39.1092 28.7992 38.6924 28.6604 38.3664 28.3774C38.0403 28.0945 37.8447 27.7023 37.8152 27.2729L37.602 24.1648C37.5053 22.7547 37.1554 21.3988 36.5774 20.1474L39.3904 18.5251C40.2084 20.2027 40.702 22.0349 40.8331 23.9453L41.0464 27.0533C41.0757 27.4828 40.9354 27.8979 40.6511 28.2223Z"/>
</mask>
<path d="M42.987 23.799C42.6786 19.3016 40.6179 15.1837 37.1848 12.204C35.1723 10.4572 32.7837 9.20595 30.2237 8.54971C30.289 8.21616 30.3233 7.87177 30.3233 7.51953V5.37109C30.3233 2.40947 27.902 0 24.9258 0C21.9496 0 19.5282 2.40947 19.5282 5.37109V7.51953C19.5282 7.87177 19.5626 8.21616 19.6279 8.54971C17.0682 9.20573 14.6792 10.4572 12.6667 12.204C9.23354 15.1838 7.17287 19.3016 6.86445 23.799L6.65114 26.9071C6.58238 27.9091 6.9099 28.8777 7.57325 29.6346C8.23672 30.3915 9.15657 30.8459 10.1633 30.9142C10.2512 30.9202 10.3388 30.9232 10.4263 30.9232C11.0304 30.9231 11.6164 30.781 12.1451 30.5102C12.105 32.2335 12.2994 33.9575 12.49 35.647C12.7771 38.1937 13.0484 40.5991 12.4811 42.7058C12.3942 43.0284 12.4631 43.3728 12.6674 43.6378C12.8718 43.9027 13.1883 44.058 13.5239 44.058H15.4398L17.6027 50.8076C18.4943 53.5894 20.1082 55 22.3996 55C23.4805 55 24.326 54.6455 24.9258 54.1003C25.5256 54.6455 26.371 55 27.4519 55C29.7435 55 31.3574 53.5894 32.2488 50.8075L34.4117 44.0579H36.3275C36.663 44.0579 36.9797 43.9026 37.184 43.6377C37.3884 43.3727 37.4571 43.0283 37.3703 42.7057C36.803 40.5991 37.0744 38.1936 37.3616 35.647C37.5521 33.9576 37.7464 32.2335 37.7064 30.5101C38.235 30.781 38.8212 30.9231 39.4253 30.9231C39.5126 30.923 39.6003 30.9201 39.6882 30.9141C40.6951 30.8458 41.6149 30.3914 42.2783 29.6345C42.9417 28.8776 43.2692 27.9091 43.2004 26.9069L42.987 23.799ZM21.6873 5.37109C21.6873 3.59412 23.1401 2.14844 24.9258 2.14844C26.7115 2.14844 28.1643 3.59412 28.1643 5.37109V7.51953C28.1643 9.2965 26.7115 10.7422 24.9258 10.7422C23.1401 10.7422 21.6873 9.2965 21.6873 7.51953V5.37109ZM11.4852 28.3774C11.1592 28.6603 10.7416 28.7993 10.3105 28.7707C9.87897 28.7415 9.48474 28.5466 9.2005 28.2223C8.91616 27.8979 8.77582 27.4828 8.80529 27.0533L9.0186 23.9452C9.14966 22.0348 9.64332 20.2027 10.4613 18.525L13.2742 20.1473C12.6963 21.3987 12.3463 22.7546 12.2496 24.1647L12.0364 27.2728C12.0069 27.7023 11.8111 28.0945 11.4852 28.3774ZM22.3996 52.8516C21.0849 52.8516 20.2654 52.045 19.6597 50.1548L17.706 44.0579H23.8463V51.6203C23.8463 51.9091 23.742 52.8516 22.3996 52.8516ZM30.1918 50.1548C29.5861 52.045 28.7668 52.8516 27.452 52.8516C26.1097 52.8516 26.0053 51.9091 26.0053 51.6203V44.0579H32.1455L30.1918 50.1548ZM35.2158 35.4073C34.9718 37.5721 34.7208 39.7976 35.0132 41.9094H14.8383C15.1308 39.7976 14.8798 37.5721 14.6357 35.4073C14.3719 33.068 14.1001 30.6575 14.5157 28.4202H20.0677C20.6639 28.4202 21.1472 27.9391 21.1472 27.346C21.1472 26.7528 20.6639 26.2717 20.0677 26.2717H14.2691L14.4036 24.311C14.5329 22.4245 15.2207 20.6564 16.3753 19.1888C17.1445 20.6312 18.6698 21.6159 20.422 21.6159C21.2244 21.6159 22.0159 21.4049 22.7107 21.0056C23.2271 20.709 23.404 20.0521 23.1059 19.5383C22.8079 19.0244 22.1477 18.8482 21.6313 19.1451C21.2642 19.3559 20.846 19.4674 20.422 19.4674C19.0883 19.4674 18.0033 18.3877 18.0033 17.0607C18.0033 16.6395 17.7559 16.2572 17.3707 16.0828C16.9855 15.9085 16.5333 15.9743 16.2143 16.2511C15.5074 16.8646 14.8858 17.5483 14.3564 18.2881L11.5441 16.6662C12.2559 15.6281 13.107 14.6726 14.086 13.8229C15.9256 12.2262 18.1237 11.1036 20.475 10.5546C21.4487 11.9644 23.0806 12.8906 24.9258 12.8906C26.771 12.8906 28.4029 11.9644 29.3767 10.5547C31.7282 11.1038 33.9259 12.2263 35.7655 13.823C36.7445 14.6728 37.5956 15.6282 38.3074 16.6664L35.4951 18.2884C34.9657 17.5485 34.344 16.8648 33.6373 16.2513C33.3184 15.9745 32.8661 15.9086 32.4808 16.083C32.0955 16.2573 31.8482 16.6398 31.8482 17.061C31.8482 18.388 30.7632 19.4676 29.4296 19.4676C29.0056 19.4676 28.5874 19.3561 28.2203 19.1453C27.7039 18.8486 27.0437 19.0247 26.7457 19.5384C26.4476 20.0522 26.6245 20.7092 27.1408 21.0058C27.8358 21.4051 28.6272 21.6161 29.4296 21.6161C31.1816 21.6161 32.7071 20.6314 33.4762 19.189C34.6309 20.6566 35.3186 22.4247 35.448 24.3112L35.5826 26.272H29.7832C29.1871 26.272 28.7037 26.753 28.7037 27.3462C28.7037 27.9394 29.1871 28.4204 29.7832 28.4204H35.336C35.7514 30.6576 35.4797 33.068 35.2158 35.4073ZM40.6511 28.2223C40.3667 28.5467 39.9726 28.7415 39.5411 28.7707C39.1092 28.7992 38.6924 28.6604 38.3664 28.3774C38.0403 28.0945 37.8447 27.7023 37.8152 27.2729L37.602 24.1648C37.5053 22.7547 37.1554 21.3988 36.5774 20.1474L39.3904 18.5251C40.2084 20.2027 40.702 22.0349 40.8331 23.9453L41.0464 27.0533C41.0757 27.4828 40.9354 27.8979 40.6511 28.2223Z" fill="url(#paint0_linear_192_284)" stroke="#F5F0E6" stroke-width="0.6" mask="url(#path-1-inside-1_192_284)"/>
</g>
<path id="Vector_2" d="M3.97858 26.9802C3.97858 27.4899 3.56313 27.9044 3.04908 27.9044H1.17667C0.66262 27.9044 0.247168 27.4899 0.247168 26.9802C0.247168 26.4706 0.66262 26.056 1.17667 26.056H3.04908C3.56313 26.056 3.97858 26.4706 3.97858 26.9802Z" fill="url(#paint1_linear_192_284)" stroke="#F5F0E6" stroke-width="0.3"/>
<path id="Vector_3" d="M46.8024 26.7877H48.6749C49.189 26.7877 49.6044 27.2023 49.6044 27.7119C49.6044 28.2216 49.1889 28.6361 48.6749 28.6361H46.8024C46.2885 28.6361 45.8729 28.2216 45.8729 27.7119C45.8729 27.2023 46.2885 26.7877 46.8024 26.7877Z" fill="url(#paint2_linear_192_284)" stroke="#F5F0E6" stroke-width="0.3"/>
<path id="Vector_4" d="M4.13034 20.4655L4.13034 20.4654L2.32173 19.9833L2.32173 19.9833C1.82486 19.8509 1.31576 20.1444 1.18304 20.637L4.13034 20.4655ZM4.13034 20.4655C4.62665 20.5977 4.92008 21.1047 4.78746 21.5971L4.78745 21.5971C4.67642 22.0095 4.30128 22.2826 3.89025 22.2826C3.8108 22.2826 3.72987 22.2723 3.64886 22.2507C3.64884 22.2507 3.64883 22.2507 3.64882 22.2507L1.84025 21.7686L1.84025 21.7686M4.13034 20.4655L1.84025 21.7686M1.84025 21.7686C1.34395 21.6364 1.05051 21.1294 1.18303 20.637L1.84025 21.7686Z" fill="url(#paint3_linear_192_284)" stroke="#F5F0E6" stroke-width="0.3"/>
<path id="Vector_5" d="M48.0113 32.9233L48.0112 32.9233L46.2027 32.4411C46.2027 32.4411 46.2026 32.4411 46.2026 32.4411C45.7057 32.3087 45.1968 32.6021 45.0641 33.0948C44.9314 33.587 45.2248 34.094 45.7212 34.2264L48.0113 32.9233ZM48.0113 32.9233C48.5076 33.0556 48.801 33.5627 48.6684 34.055L48.6684 34.055C48.5573 34.4674 48.1822 34.7405 47.7712 34.7405C47.6917 34.7405 47.6108 34.7302 47.5298 34.7086C47.5298 34.7086 47.5298 34.7086 47.5297 34.7086L45.7212 34.2264L48.0113 32.9233Z" fill="url(#paint4_linear_192_284)" stroke="#F5F0E6" stroke-width="0.3"/>
<path id="Vector_6" d="M3.45863 31.7344L3.45869 31.7343C3.95496 31.6018 4.46449 31.8953 4.59733 32.388C4.72985 32.8803 4.43643 33.3873 3.94021 33.5197C3.9402 33.5197 3.94019 33.5197 3.94019 33.5197L2.1316 34.0019L2.13149 34.0019C2.0507 34.0235 1.9696 34.0338 1.89011 34.0338C1.47907 34.0338 1.10394 33.7608 0.992912 33.3482L0.992909 33.3482C0.860383 32.856 1.1538 32.349 1.65003 32.2166C1.65004 32.2166 1.65004 32.2166 1.65005 32.2166L3.45863 31.7344Z" fill="url(#paint5_linear_192_284)" stroke="#F5F0E6" stroke-width="0.3"/>
<path id="Vector_7" d="M46.393 22.9577L46.3928 22.9578C46.3121 22.9794 46.2311 22.9896 46.1516 22.9896C45.7405 22.9896 45.3654 22.7166 45.2544 22.3041L45.2544 22.3041C45.1217 21.8118 45.4151 21.3048 45.9115 21.1724C45.9115 21.1724 45.9115 21.1724 45.9115 21.1724L47.7201 20.6902L47.7202 20.6902C48.2165 20.5576 48.726 20.8511 48.8587 21.3439L48.8587 21.3439C48.9913 21.8361 48.6979 22.3431 48.2016 22.4755C48.2016 22.4755 48.2015 22.4755 48.2015 22.4755L46.393 22.9577Z" fill="url(#paint6_linear_192_284)" stroke="#F5F0E6" stroke-width="0.3"/>
<path id="Vector_8" d="M24.9251 26.4217H24.9258C25.4399 26.4217 25.8553 26.8363 25.8553 27.3459C25.8553 27.8556 25.4399 28.2702 24.9258 28.2702C24.4117 28.2702 23.996 27.8555 23.996 27.3459C23.996 26.8362 24.4111 26.4217 24.9251 26.4217Z" fill="url(#paint7_linear_192_284)" stroke="#F5F0E6" stroke-width="0.3"/>
</g>
</g>
<defs>
<linearGradient id="paint0_linear_192_284" x1="24.9258" y1="1.70563" x2="57.1677" y2="58.1773" gradientUnits="userSpaceOnUse">
<stop stop-color="#E0D1B0"/>
<stop offset="1" stop-color="#BDAA80"/>
</linearGradient>
<linearGradient id="paint1_linear_192_284" x1="2.11288" y1="25.9726" x2="2.68132" y2="28.7826" gradientUnits="userSpaceOnUse">
<stop stop-color="#E0D1B0"/>
<stop offset="1" stop-color="#BDAA80"/>
</linearGradient>
<linearGradient id="paint2_linear_192_284" x1="47.7387" y1="26.7043" x2="48.3071" y2="29.5143" gradientUnits="userSpaceOnUse">
<stop stop-color="#E0D1B0"/>
<stop offset="1" stop-color="#BDAA80"/>
</linearGradient>
<linearGradient id="paint3_linear_192_284" x1="2.98526" y1="19.8831" x2="3.83314" y2="23.2519" gradientUnits="userSpaceOnUse">
<stop stop-color="#E0D1B0"/>
<stop offset="1" stop-color="#BDAA80"/>
</linearGradient>
<linearGradient id="paint4_linear_192_284" x1="46.8662" y1="32.3409" x2="47.7142" y2="35.7097" gradientUnits="userSpaceOnUse">
<stop stop-color="#E0D1B0"/>
<stop offset="1" stop-color="#BDAA80"/>
</linearGradient>
<linearGradient id="paint5_linear_192_284" x1="2.79512" y1="31.6341" x2="3.6431" y2="35.003" gradientUnits="userSpaceOnUse">
<stop stop-color="#E0D1B0"/>
<stop offset="1" stop-color="#BDAA80"/>
</linearGradient>
<linearGradient id="paint6_linear_192_284" x1="47.0565" y1="20.5899" x2="47.9045" y2="23.9589" gradientUnits="userSpaceOnUse">
<stop stop-color="#E0D1B0"/>
<stop offset="1" stop-color="#BDAA80"/>
</linearGradient>
<linearGradient id="paint7_linear_192_284" x1="24.9257" y1="26.3384" x2="25.8925" y2="28.8982" gradientUnits="userSpaceOnUse">
<stop stop-color="#E0D1B0"/>
<stop offset="1" stop-color="#BDAA80"/>
</linearGradient>
</defs>
</svg>
