<svg width="24" height="23" viewBox="0 0 24 23" fill="none" xmlns="http://www.w3.org/2000/svg">
<path id="Vector" d="M23.04 0H0.96C0.429 0 0 0.411125 0 0.92V22.08C0 22.5889 0.429 23 0.96 23H23.04C23.571 23 24 22.5889 24 22.08V0.92C24 0.411125 23.571 0 23.04 0ZM20.268 6.71313H18.351C16.848 6.71313 16.557 7.39737 16.557 8.40362V10.6202H20.145L19.677 14.0904H16.557V23H12.816V14.0933H9.687V10.6202H12.816V8.0615C12.816 5.09162 14.709 3.473 17.475 3.473C18.801 3.473 19.938 3.56788 20.271 3.611V6.71313H20.268Z" fill="#404040"/>
</svg>
