<svg width="181" height="181" viewBox="0 0 181 181" fill="none" xmlns="http://www.w3.org/2000/svg">
<g filter="url(#filter0_b_448_289)">
<circle cx="90.6412" cy="90.6412" r="90.1295" fill="#E0D1B0" fill-opacity="0.03"/>
<circle cx="90.6412" cy="90.6412" r="89.1295" stroke="#323232" stroke-width="2"/>
</g>
<g filter="url(#filter1_b_448_289)">
<circle cx="90.6412" cy="90.641" r="50.2797" fill="#E0D1B0" fill-opacity="0.03"/>
<circle cx="90.6412" cy="90.641" r="49.2797" stroke="#323232" stroke-width="2"/>
</g>
<g clip-path="url(#clip0_448_289)">
<path d="M22.2484 78.213C22.1057 78.993 21.8181 79.6354 21.3821 80.1294C20.9424 80.6269 20.3977 80.9689 19.7406 81.1625C19.0836 81.3561 18.3611 81.3762 17.5732 81.2299C16.7853 81.0837 16.1164 80.804 15.5627 80.3873C15.0127 79.9743 14.6214 79.4532 14.3815 78.8313C14.1453 78.2058 14.0968 77.5084 14.236 76.7248C14.4037 75.7967 14.7742 75.0787 15.3402 74.5705C15.9063 74.0624 16.621 73.8111 17.4808 73.8203L17.1989 75.3767C16.7618 75.3938 16.3937 75.5375 16.098 75.8041C15.8024 76.0708 15.6046 76.4641 15.5154 76.9805C15.3869 77.6956 15.5292 78.2992 15.9385 78.795C16.3551 79.2909 16.9844 79.6174 17.8301 79.771C18.6794 79.9283 19.3801 79.8503 19.9357 79.5337C20.4913 79.217 20.837 78.7048 20.9655 77.9898C21.0619 77.4734 21.0211 77.0362 20.8542 76.6817C20.6872 76.3273 20.4121 76.0666 20.0324 75.896L20.3143 74.3396C21.0844 74.6339 21.6419 75.1192 21.983 75.7992C22.3277 76.4755 22.4089 77.2777 22.2412 78.2057L22.2484 78.213Z" fill="black"/>
<path d="M25.0708 67.2732L17.6985 64.4931L18.2013 63.1504L25.5736 65.9304L25.0744 67.2768L25.0708 67.2732Z" fill="black"/>
<path d="M28.8842 58.4704L22.1088 54.4417L22.8394 53.2042L29.4894 52.8613L24.7145 50.0256L25.4451 48.7881L32.2205 52.8168L31.4899 54.0543L24.8507 54.4008L29.6148 57.2329L28.8842 58.4704Z" fill="black"/>
<path d="M38.3048 44.9946L33.3165 40.4822L31.785 42.1803L30.927 41.4017L34.9668 36.9347L35.8247 37.7133L34.286 39.4186L39.2742 43.9311L38.312 44.9946L38.3048 44.9946Z" fill="black"/>
<path d="M48.9767 35.3871C48.515 35.7329 48.0314 35.9486 47.5187 36.0414C47.0095 36.1306 46.5072 36.0753 46.0082 35.8646C45.5092 35.654 45.0459 35.2628 44.6256 34.6911L41.7195 30.7902L42.8737 29.933L45.7833 33.8447C46.1493 34.3404 46.5437 34.6195 46.9593 34.6818C47.3749 34.7441 47.7937 34.6222 48.2156 34.3089C48.6304 34.0027 48.8644 33.6384 48.9285 33.2195C48.989 32.7969 48.8362 32.3414 48.4667 31.8493L45.557 27.9375L46.7111 27.0803L49.6135 30.9848C50.0411 31.5565 50.2772 32.117 50.3253 32.6554C50.3771 33.1974 50.2771 33.703 50.0361 34.1684C49.7915 34.6375 49.4383 35.0414 48.9731 35.3835L48.9767 35.3871Z" fill="black"/>
<path d="M58.3523 29.3137L54.9948 22.1857L57.6076 20.9633C58.1778 20.6972 58.6905 20.5755 59.1494 20.5946C59.6082 20.6137 60.0095 20.7482 60.346 20.991C60.6825 21.2338 60.947 21.5559 61.1357 21.961C61.339 22.3949 61.4159 22.8467 61.3555 23.3126C61.2951 23.7785 61.0649 24.2042 60.6611 24.5935L63.5419 26.8903L62.0478 27.5878L59.4021 25.3963L58.3267 25.8997L59.6515 28.7096L58.3487 29.3173L58.3523 29.3137ZM57.8766 24.9377L59.1036 24.3624C59.5366 24.1611 59.807 23.9052 59.9111 23.5984C60.0152 23.2915 59.9855 22.9663 59.8222 22.6228C59.6625 22.2828 59.438 22.0583 59.1379 21.9457C58.8378 21.833 58.4694 21.8828 58.0256 22.0949L56.8058 22.663L57.8766 24.9377Z" fill="black"/>
<path d="M70.4364 24.4057L71.3788 16.0843L72.9531 15.7121L77.6037 22.6984L76.1197 23.0528L75.0792 21.4284L72.0968 22.137L71.9024 24.0549L70.44 24.4021L70.4364 24.4057ZM72.2134 20.956L74.4303 20.4263L72.5453 17.5103L72.2134 20.956Z" fill="black"/>
<path d="M94.5303 21.7607L95.2823 13.9338L98.1803 14.2221C98.8054 14.2849 99.3151 14.4414 99.7022 14.6915C100.089 14.9416 100.372 15.2602 100.539 15.6435C100.706 16.0268 100.768 16.4496 100.726 16.9047C100.684 17.3381 100.551 17.7244 100.32 18.0634C100.093 18.4061 99.7617 18.6655 99.3286 18.8452C98.8954 19.0248 98.3609 19.0814 97.7177 19.015L96.2507 18.8672L95.9576 21.8975L94.523 21.7534L94.5303 21.7607ZM96.3637 17.7114L97.7404 17.8481C98.2391 17.8998 98.611 17.8248 98.8526 17.6266C99.0942 17.4285 99.2308 17.1398 99.2697 16.7605C99.3086 16.3741 99.2248 16.0596 99.0292 15.8135C98.8299 15.571 98.4828 15.4257 97.9806 15.3777L96.6038 15.2409L96.3673 17.715L96.3637 17.7114Z" fill="black"/>
<path d="M107.775 23.882L110.002 16.3474L114.929 17.8215L114.603 18.9299L111.053 17.8671L110.443 19.9321L113.668 20.9003L113.349 21.9797L110.124 21.0116L109.482 23.1886L113.029 24.255L112.703 25.3633L107.775 23.8892L107.775 23.882Z" fill="black"/>
<path d="M120.09 28.3675L123.727 21.4069L126.291 22.7528C126.852 23.0467 127.261 23.3836 127.522 23.7599C127.786 24.1398 127.924 24.5375 127.936 24.953C127.948 25.3685 127.851 25.7692 127.646 26.1626C127.423 26.5884 127.109 26.9164 126.702 27.1503C126.294 27.3842 125.814 27.459 125.261 27.3675L125.186 31.0413L123.721 30.2686L123.858 26.8441L122.798 26.289L121.363 29.035L120.086 28.3639L120.09 28.3675ZM123.287 25.3581L124.492 25.993C124.919 26.2179 125.284 26.2801 125.591 26.176C125.897 26.0792 126.139 25.8521 126.315 25.5165C126.488 25.1846 126.53 24.8668 126.44 24.5667C126.349 24.2667 126.081 23.9987 125.643 23.7702L124.446 23.1425L123.287 25.3581Z" fill="black"/>
<path d="M131.745 35.4091L136.63 29.2641L140.611 32.4376L139.894 33.3428L137.043 31.0677L135.674 32.7842L137.983 34.6246L137.276 35.5117L134.967 33.6714L132.871 36.3039L131.742 35.4055L131.745 35.4091Z" fill="black"/>
<path d="M141.291 43.9597L147.229 38.825L150.598 42.7197L149.725 43.4764L147.299 40.6748L145.672 42.0837L147.874 44.6319L147.027 45.3634L144.821 42.8188L143.109 44.2998L145.535 47.1013L144.663 47.858L141.294 43.9634L141.291 43.9597Z" fill="black"/>
<path d="M149.276 54.4251L155.976 50.3325L156.73 51.5625L150.03 55.6551L149.276 54.4251Z" fill="black"/>
<path d="M154.555 64.5846L160.771 62.0841L159.906 59.958L160.978 59.5232L163.256 65.1242L162.184 65.559L161.316 63.422L155.1 65.9225L154.559 64.5883L154.555 64.5846Z" fill="black"/>
<path d="M157.85 74.115L166.133 75.4268L166.45 77.0134L159.3 81.3471L158.997 79.8471L160.66 78.8791L160.057 75.8684L158.145 75.586L157.85 74.1078L157.85 74.115ZM161.235 76.0444L161.685 78.2817L164.668 76.529L161.239 76.0408L161.235 76.0444Z" fill="black"/>
<path d="M21.567 125.869L28.4224 122.033L29.1297 123.289L26.1191 129.217L30.9432 126.515L31.6504 127.77L24.795 131.606L24.0877 130.351L27.0875 124.426L22.2706 127.121L21.5634 125.866L21.567 125.869Z" fill="black"/>
<path d="M34.4118 138.109C34.1365 137.783 33.9588 137.439 33.8821 137.074C33.8018 136.713 33.8263 136.362 33.9412 136.023C34.0596 135.68 34.2721 135.388 34.575 135.129C34.8851 134.869 35.2135 134.715 35.5674 134.665C35.9213 134.615 36.2682 134.659 36.6081 134.797C36.948 134.935 37.2556 135.171 37.5345 135.5C37.8134 135.829 37.9876 136.169 38.0679 136.531C38.1482 136.892 38.1309 137.243 38.0196 137.578C37.9084 137.914 37.6995 138.217 37.3894 138.476C37.0865 138.729 36.7545 138.887 36.397 138.94C36.0359 138.997 35.689 138.953 35.3454 138.812C35.0019 138.67 34.6943 138.434 34.4154 138.105L34.4118 138.109ZM35.0825 137.547C35.26 137.76 35.4951 137.887 35.7806 137.92C36.0661 137.961 36.3585 137.856 36.6577 137.601C36.957 137.352 37.1118 137.081 37.1292 136.796C37.143 136.507 37.063 136.254 36.8782 136.033C36.7007 135.82 36.4656 135.7 36.1838 135.67C35.8983 135.637 35.606 135.749 35.3103 136.001C35.011 136.249 34.8526 136.516 34.8352 136.795C34.8177 137.073 34.8978 137.326 35.0861 137.543L35.0825 137.547Z" fill="black"/>
<path d="M39.7288 149.114L43.8006 144.419L42.6251 143.799L43.3458 142.969L45.3341 143.581L46.0037 144.164L40.8581 150.091L39.7252 149.11L39.7288 149.114Z" fill="black"/>
<path d="M57.3411 160.822L60.4174 153.596L62.8908 154.656C63.7369 155.02 64.3738 155.469 64.794 156.005C65.2143 156.54 65.4432 157.137 65.4808 157.787C65.5183 158.437 65.379 159.134 65.07 159.863C64.7609 160.592 64.3576 161.17 63.8636 161.598C63.3696 162.027 62.7813 162.268 62.1059 162.335C61.4269 162.399 60.6715 162.249 59.8181 161.886L57.3447 160.825L57.3411 160.822ZM59.1498 160.258L60.2346 160.723C60.8421 160.985 61.3625 161.094 61.7959 161.045C62.233 160.999 62.6011 160.826 62.9111 160.523C63.2175 160.217 63.4839 159.806 63.7067 159.286C63.9259 158.77 64.0405 158.293 64.0431 157.856C64.053 157.419 63.9184 157.025 63.6539 156.674C63.3894 156.323 62.948 156.018 62.3405 155.757L61.2557 155.292L59.1425 160.258L59.1498 160.258Z" fill="black"/>
<path d="M76.0286 167.073C75.2588 166.923 74.6115 166.622 74.0975 166.173C73.5835 165.724 73.221 165.167 73.0064 164.505C72.7917 163.844 72.7576 163.117 72.9076 162.33C73.0576 161.543 73.3487 160.883 73.7919 160.345C74.235 159.808 74.7725 159.43 75.415 159.2C76.0575 158.97 76.7655 158.936 77.5389 159.082C78.3051 159.228 78.9452 159.529 79.4629 159.982C79.9805 160.435 80.3466 160.988 80.554 161.65C80.765 162.315 80.7955 163.038 80.6455 163.825C80.4955 164.612 80.2044 165.273 79.7685 165.81C79.3325 166.347 78.7915 166.729 78.1453 166.955C77.4992 167.181 76.7948 167.219 76.0286 167.073ZM76.2678 165.806C77.0015 165.948 77.637 165.82 78.1672 165.42C78.6974 165.02 79.0392 164.396 79.2035 163.551C79.3642 162.702 79.2723 161.998 78.9242 161.426C78.5761 160.854 78.0334 160.499 77.2997 160.357C76.5661 160.214 75.9305 160.343 75.3931 160.743C74.8594 161.146 74.5139 161.767 74.3496 162.612C74.189 163.46 74.2845 164.168 74.6362 164.736C74.9842 165.308 75.5305 165.667 76.2678 165.806Z" fill="black"/>
<path d="M99.4077 167.909L98.2235 160.129L101.344 159.666C102.153 159.545 102.796 159.64 103.281 159.952C103.766 160.264 104.048 160.712 104.136 161.298C104.21 161.789 104.138 162.201 103.919 162.529C103.703 162.861 103.407 163.106 103.046 163.264C103.501 163.287 103.906 163.454 104.247 163.765C104.59 164.073 104.794 164.464 104.867 164.927C104.962 165.541 104.819 166.082 104.433 166.548C104.048 167.013 103.449 167.308 102.636 167.425L99.4041 167.906L99.4077 167.909ZM100.141 163.186L101.629 162.965C102.03 162.904 102.322 162.764 102.506 162.551C102.694 162.335 102.762 162.057 102.707 161.714C102.655 161.388 102.514 161.146 102.272 160.99C102.033 160.831 101.7 160.787 101.278 160.847L99.8079 161.064L100.131 163.189L100.141 163.186ZM100.651 166.543L102.24 166.308C102.663 166.247 102.977 166.1 103.178 165.869C103.38 165.639 103.455 165.346 103.4 164.988C103.345 164.623 103.179 164.356 102.904 164.189C102.625 164.018 102.282 163.963 101.866 164.024L100.303 164.255L100.651 166.543Z" fill="black"/>
<path d="M114.068 164.813L111.4 157.401L114.118 156.436C114.71 156.228 115.234 156.153 115.693 156.215C116.148 156.281 116.535 156.452 116.85 156.724C117.161 156.999 117.397 157.343 117.546 157.758C117.709 158.21 117.739 158.666 117.635 159.124C117.532 159.583 117.265 159.987 116.825 160.333L119.475 162.889L117.923 163.442L115.494 161.012L114.375 161.407L115.425 164.332L114.072 164.817L114.068 164.813ZM114.015 160.413L115.296 159.957C115.748 159.795 116.04 159.569 116.173 159.276C116.306 158.984 116.309 158.655 116.178 158.294C116.05 157.943 115.844 157.693 115.562 157.555C115.28 157.417 114.904 157.431 114.435 157.596L113.164 158.048L114.011 160.409L114.015 160.413Z" fill="black"/>
<path d="M127.354 159.233L125.724 151.007L127.109 150.172L133.656 155.428L132.347 156.216L130.866 154.981L128.244 156.561L128.642 158.452L127.357 159.229L127.354 159.233ZM127.995 155.397L129.947 154.22L127.269 152.011L127.999 155.401L127.995 155.397Z" fill="black"/>
<path d="M142.816 148.274C142.391 148.663 141.947 148.933 141.492 149.084C141.03 149.235 140.586 149.259 140.145 149.157C139.704 149.055 139.306 148.808 138.94 148.421L140.058 147.397C140.319 147.658 140.626 147.799 140.98 147.815C141.334 147.83 141.677 147.69 142.002 147.394C142.283 147.135 142.445 146.864 142.484 146.579C142.527 146.29 142.443 146.033 142.233 145.809C142.016 145.57 141.773 145.45 141.502 145.453C141.235 145.453 140.939 145.524 140.625 145.664C140.307 145.801 139.968 145.952 139.604 146.106C139.015 146.362 138.492 146.472 138.036 146.443C137.581 146.413 137.165 146.199 136.796 145.793C136.477 145.453 136.289 145.084 136.23 144.686C136.175 144.285 136.228 143.884 136.393 143.48C136.559 143.076 136.836 142.704 137.218 142.351C137.608 141.998 138.008 141.757 138.43 141.624C138.853 141.491 139.261 141.474 139.659 141.569C140.056 141.664 140.414 141.878 140.74 142.211L139.608 143.249C139.413 143.053 139.17 142.941 138.874 142.918C138.578 142.896 138.293 143.015 138.026 143.26C137.791 143.465 137.647 143.703 137.597 143.963C137.547 144.223 137.627 144.469 137.838 144.701C138.015 144.893 138.218 144.994 138.441 144.995C138.665 144.995 138.922 144.942 139.203 144.827C139.485 144.712 139.799 144.579 140.149 144.417C140.528 144.255 140.896 144.133 141.257 144.047C141.615 143.965 141.969 143.966 142.312 144.05C142.659 144.137 142.985 144.355 143.3 144.699C143.579 145.006 143.764 145.357 143.848 145.758C143.932 146.159 143.896 146.578 143.735 147.015C143.577 147.448 143.278 147.87 142.838 148.274L142.816 148.274Z" fill="black"/>
<path d="M150.759 139.6L144.571 134.716L145.461 133.587L151.653 138.467L150.763 139.596L150.759 139.6Z" fill="black"/>
<path d="M156.878 130.838L149.994 126.997L150.692 125.742L156.592 129.039L158.279 125.997L159.263 126.548L156.878 130.845L156.878 130.838Z" fill="black"/>
<path d="M52 107V105.815C54.0293 105.815 55.2131 105.439 55.5513 104.687V76.3128C55.2131 75.5607 54.0293 75.1846 52 75.1846V74H61.5266L78.2123 96.8462V76.3128C77.874 75.5607 76.6903 75.1846 74.6609 75.1846V74H83.6802V75.1846C81.6509 75.1846 80.4671 75.5607 80.1289 76.3128V107H77.6486L57.4679 79.0769V104.687C57.8062 105.439 58.9899 105.815 61.0193 105.815V107H52Z" fill="#323232"/>
<path d="M85.3176 98.2564H101.665V99.7231H85.3176V98.2564ZM89.7708 87.1436C89.7708 91.882 91.2177 94.2513 94.1114 94.2513C95.126 94.2513 95.8964 93.7624 96.4226 92.7846C96.9863 91.7692 97.2681 90.453 97.2681 88.8359C97.2681 86.3162 96.9487 84.5299 96.3098 83.4769C95.671 82.3863 94.5248 81.841 92.8712 81.841C91.8941 81.841 91.1237 82.3675 90.56 83.4205C90.0339 84.4359 89.7708 85.6769 89.7708 87.1436ZM93.6604 95.1538C91.1049 95.1538 89.0756 94.4769 87.5724 93.1231C86.0692 91.7692 85.3176 89.9829 85.3176 87.7641C85.3176 85.7709 85.994 84.135 87.3469 82.8564C88.7374 81.5402 90.7667 80.8821 93.4349 80.8821C96.1031 80.8821 98.1325 81.5402 99.5229 82.8564C100.951 84.1726 101.665 85.9402 101.665 88.159C101.665 90.1521 100.989 91.8256 99.6357 93.1795C98.2828 94.4957 96.291 95.1538 93.6604 95.1538Z" fill="#323232"/>
<path d="M120.968 74V103.559C120.968 104.349 121.588 104.932 122.829 105.308C124.069 105.646 125.459 105.815 127 105.815V107H107.947V105.815C109.488 105.815 110.878 105.646 112.118 105.308C113.358 104.932 113.978 104.349 113.978 103.559V82.4615C112.062 83.7026 110.371 84.8872 108.905 86.0154L108.51 85.0564L118.544 74H120.968Z" fill="#323232"/>
</g>
<defs>
<filter id="filter0_b_448_289" x="-49.4883" y="-49.4883" width="280.259" height="280.259" filterUnits="userSpaceOnUse" color-interpolation-filters="sRGB">
<feFlood flood-opacity="0" result="BackgroundImageFix"/>
<feGaussianBlur in="BackgroundImageFix" stdDeviation="25"/>
<feComposite in2="SourceAlpha" operator="in" result="effect1_backgroundBlur_448_289"/>
<feBlend mode="normal" in="SourceGraphic" in2="effect1_backgroundBlur_448_289" result="shape"/>
</filter>
<filter id="filter1_b_448_289" x="12.4685" y="12.4683" width="156.345" height="156.345" filterUnits="userSpaceOnUse" color-interpolation-filters="sRGB">
<feFlood flood-opacity="0" result="BackgroundImageFix"/>
<feGaussianBlur in="BackgroundImageFix" stdDeviation="13.9465"/>
<feComposite in2="SourceAlpha" operator="in" result="effect1_backgroundBlur_448_289"/>
<feBlend mode="normal" in="SourceGraphic" in2="effect1_backgroundBlur_448_289" result="shape"/>
</filter>
<clipPath id="clip0_448_289">
<rect width="155" height="154" fill="white" transform="translate(13 14)"/>
</clipPath>
</defs>
</svg>
