<svg width="176" height="24" viewBox="0 0 176 24" fill="none" xmlns="http://www.w3.org/2000/svg">
<g id="FORMAS DE PAGAMENTO 1" clip-path="url(#clip0_164_1350)">
<g id="Camada 2">
<g id="Camada 1">
<path id="Vector" d="M144.889 3.28345H142.84V13.8923H144.889V3.28345Z" fill="#323232"/>
<path id="Vector_2" d="M131.843 3.28345H130.769V13.8923H131.843V3.28345Z" fill="#323232"/>
<path id="Vector_3" d="M134.857 3.28345H133.783V13.8923H134.857V3.28345Z" fill="#323232"/>
<path id="Vector_4" d="M141.275 3.28345H140.42V13.8923H141.275V3.28345Z" fill="#323232"/>
<path id="Vector_5" d="M139.269 3.28345H138.414V13.8923H139.269V3.28345Z" fill="#323232"/>
<path id="Vector_6" d="M148.906 3.28345H146.857V13.8923H148.906V3.28345Z" fill="#323232"/>
<path id="Vector_7" d="M137.258 3.28345H136.403V13.8923H137.258V3.28345Z" fill="#323232"/>
<path id="Vector_8" d="M159.959 3.28345H155.899V13.8923H159.959V3.28345Z" fill="#323232"/>
<path id="Vector_9" d="M154.934 3.28345H152.885V13.8923H154.934V3.28345Z" fill="#323232"/>
<path id="Vector_10" d="M163.268 3.28345H161.219V13.8923H163.268V3.28345Z" fill="#323232"/>
<path id="Vector_11" d="M166.416 3.28345H165.56V13.8923H166.416V3.28345Z" fill="#323232"/>
<path id="Vector_12" d="M171.008 3.28345H168.959V13.8923H171.008V3.28345Z" fill="#323232"/>
<path id="Vector_13" d="M173.423 3.28345H172.568V13.8923H173.423V3.28345Z" fill="#323232"/>
<path id="Vector_14" d="M151.321 3.28345H150.465V13.8923H151.321V3.28345Z" fill="#323232"/>
<path id="Vector_15" d="M175.434 3.28345H174.579V13.8923H175.434V3.28345Z" fill="#323232"/>
<path id="Vector_16" d="M135.271 19.6161V19.5927C135.601 19.5149 135.895 19.3315 136.107 19.0713C136.32 18.8111 136.439 18.4887 136.445 18.1547C136.445 17.8307 136.342 17.5149 136.15 17.2518C135.958 16.9888 135.687 16.7918 135.376 16.6887C134.659 16.4478 133.901 16.3491 133.146 16.3983C132.351 16.3968 131.557 16.4485 130.769 16.5528V23.3397C131.435 23.4302 132.107 23.4709 132.78 23.4615C134.339 23.4615 135.257 23.2461 135.823 22.876C136.088 22.708 136.307 22.4775 136.46 22.2052C136.613 21.9329 136.694 21.6274 136.697 21.3163C136.701 20.9129 136.559 20.5212 136.299 20.2102C136.038 19.8992 135.674 19.6888 135.271 19.6161ZM132.718 17.8269C132.953 17.7951 133.19 17.7811 133.426 17.7847C134.121 17.7847 134.468 18.0142 134.468 18.403C134.468 18.7917 134.068 19.0821 133.117 19.0821H132.704L132.718 17.8269ZM133.35 22.0423C133.14 22.054 132.929 22.054 132.718 22.0423V20.4357H133.227C134.021 20.4357 134.61 20.6278 134.61 21.2133C134.61 21.7987 134.04 22.0564 133.35 22.0564V22.0423Z" fill="#323232"/>
<path id="Vector_17" d="M142.15 16.3372C139.845 16.3372 138.304 17.8688 138.304 19.9812C138.304 21.9765 139.73 23.5034 142.022 23.5034C144.442 23.5034 145.93 21.9765 145.93 19.8781C145.954 17.85 144.527 16.3372 142.15 16.3372ZM142.15 22.014C141.09 22.014 140.42 21.1334 140.42 19.939C140.42 18.7447 141.09 17.8454 142.141 17.8454C143.192 17.8454 143.862 18.7493 143.862 19.939C143.862 21.1287 143.211 22.014 142.15 22.014Z" fill="#323232"/>
<path id="Vector_18" d="M149.809 16.4636H147.841V23.3817H152.842V21.761H149.809V16.4636Z" fill="#323232"/>
<path id="Vector_19" d="M156.603 20.6416H159.46V19.0772H156.603V18.0233H159.636V16.4636H154.635V23.3817H159.793V21.8219H156.603V20.6416Z" fill="#323232"/>
<path id="Vector_20" d="M161.305 18.0421H163.287V23.3817H165.256V18.0421H167.276V16.4636H161.305V18.0421Z" fill="#323232"/>
<path id="Vector_21" d="M172.216 16.3372C169.915 16.3372 168.37 17.8688 168.37 19.9812C168.37 21.9765 169.796 23.5034 172.092 23.5034C174.507 23.5034 176 21.9765 176 19.8781C176 17.85 174.593 16.3372 172.216 16.3372ZM172.216 22.0046C171.151 22.0046 170.485 21.124 170.485 19.9297C170.485 18.7353 171.151 17.836 172.206 17.836C173.262 17.836 173.923 18.74 173.923 19.9297C173.923 21.1194 173.271 22.014 172.197 22.014L172.216 22.0046Z" fill="#323232"/>
<path id="Vector_22" d="M37.0496 16.5855C38.3971 16.5843 39.689 16.0563 40.6419 15.1176C41.5947 14.1789 42.1305 12.906 42.1318 11.5785V8.64638C42.1306 7.32491 41.5991 6.0575 40.6534 5.12045C39.7076 4.1834 38.4242 3.6527 37.0829 3.64404H32.9372C31.5905 3.64528 30.2993 4.17256 29.3466 5.11028C28.3939 6.048 27.8575 7.31963 27.855 8.64638V22.4122C27.8662 22.5169 27.9163 22.6139 27.9958 22.6843C28.0752 22.7548 28.1783 22.7938 28.2852 22.7938C28.3921 22.7938 28.4952 22.7548 28.5747 22.6843C28.6541 22.6139 28.7043 22.5169 28.7155 22.4122V8.64638C28.7167 7.54366 29.1619 6.48646 29.9534 5.70672C30.7448 4.92698 31.8179 4.48837 32.9372 4.48713H37.0829C38.1992 4.49085 39.2687 4.93005 40.0572 5.70865C40.8457 6.48724 41.2891 7.54184 41.2903 8.6417V11.5738C41.2891 12.6765 40.8439 13.7337 40.0524 14.5135C39.261 15.2932 38.1879 15.7318 37.0686 15.733H31.2209C31.1606 15.7268 31.0997 15.7331 31.042 15.7515C30.9843 15.77 30.9313 15.8002 30.8862 15.8402C30.8411 15.8801 30.8051 15.929 30.7804 15.9835C30.7558 16.0381 30.743 16.0972 30.743 16.1569C30.743 16.2167 30.7558 16.2757 30.7804 16.3303C30.8051 16.3849 30.8411 16.4337 30.8862 16.4737C30.9313 16.5137 30.9843 16.5439 31.042 16.5623C31.0997 16.5808 31.1606 16.5871 31.2209 16.5808L37.0496 16.5855Z" fill="#323232"/>
<path id="Vector_23" d="M46.1158 16.2249C46.1269 16.3296 46.1771 16.4266 46.2565 16.497C46.336 16.5675 46.4391 16.6065 46.546 16.6065C46.6529 16.6065 46.756 16.5675 46.8355 16.497C46.9149 16.4266 46.9651 16.3296 46.9763 16.2249V5.92042C46.975 5.30962 46.7282 4.72419 46.2898 4.29229C45.8514 3.86039 45.2572 3.6172 44.6372 3.61597H42.8544C42.7481 3.62699 42.6497 3.6764 42.5781 3.75468C42.5066 3.83295 42.467 3.93454 42.467 4.03985C42.467 4.14517 42.5066 4.24676 42.5781 4.32503C42.6497 4.4033 42.7481 4.45272 42.8544 4.46374H44.6467C44.8415 4.46558 45.034 4.5052 45.2133 4.58034C45.3925 4.65548 45.555 4.76467 45.6914 4.90168C45.8278 5.03869 45.9355 5.20082 46.0083 5.37883C46.0811 5.55684 46.1176 5.74724 46.1158 5.93915V16.2249Z" fill="#323232"/>
<path id="Vector_24" d="M45.3581 0.946366L46.1683 0.148182C46.2646 0.0533155 46.3952 1.8843e-05 46.5314 1.88953e-05C46.6675 1.87803e-05 46.7981 0.0533149 46.8944 0.148181L47.708 0.949679C47.8043 1.04455 47.8583 1.17321 47.8583 1.30737C47.8583 1.44153 47.8043 1.5702 47.708 1.66507L46.8978 2.46325C46.8503 2.51094 46.7936 2.54888 46.7312 2.57488C46.6687 2.60088 46.6016 2.61443 46.5337 2.61474C46.4659 2.61504 46.3987 2.60211 46.336 2.57667C46.2732 2.55124 46.2163 2.51382 46.1683 2.46656L45.3581 1.66838C45.2609 1.57263 45.2063 1.44277 45.2063 1.30737C45.2063 1.17197 45.2609 1.04211 45.3581 0.946366Z" fill="#323232"/>
<path id="Vector_25" d="M68.3083 3.6392H66.882C66.3731 3.63827 65.8691 3.73673 65.3991 3.92887C64.929 4.12102 64.5023 4.40304 64.1436 4.75863L60.0122 8.83358C59.8341 9.00805 59.5931 9.10598 59.3419 9.10598C59.0907 9.10598 58.8497 9.00805 58.6715 8.83358L54.5211 4.74458C54.1624 4.38899 53.7357 4.10697 53.2657 3.91482C52.7956 3.72268 52.2916 3.62422 51.7827 3.62514H50.0094C49.9491 3.61889 49.8882 3.6252 49.8305 3.64365C49.7728 3.6621 49.7197 3.69229 49.6747 3.73226C49.6296 3.77223 49.5936 3.82108 49.5689 3.87565C49.5442 3.93023 49.5315 3.9893 49.5315 4.04903C49.5315 4.10877 49.5442 4.16784 49.5689 4.22241C49.5936 4.27698 49.6296 4.32584 49.6747 4.3658C49.7197 4.40577 49.7728 4.43596 49.8305 4.45442C49.8882 4.47287 49.9491 4.47917 50.0094 4.47292H51.7827C52.1786 4.47201 52.5707 4.54855 52.9363 4.6981C53.302 4.84765 53.6338 5.06724 53.9126 5.34411L58.063 9.43311C58.4025 9.76661 58.8624 9.95388 59.3419 9.95388C59.8213 9.95388 60.2812 9.76661 60.6208 9.43311L64.7521 5.35817C65.031 5.08129 65.3628 4.8617 65.7284 4.71215C66.094 4.5626 66.4861 4.48606 66.882 4.48697H68.3083C68.4146 4.47595 68.513 4.42653 68.5845 4.34826C68.656 4.26999 68.6956 4.1684 68.6956 4.06308C68.6956 3.95777 68.656 3.85618 68.5845 3.77791C68.513 3.69963 68.4146 3.65022 68.3083 3.6392Z" fill="#323232"/>
<path id="Vector_26" d="M68.3082 15.6954H66.882C66.4861 15.6964 66.094 15.6198 65.7284 15.4703C65.3628 15.3207 65.0309 15.1011 64.7521 14.8242L60.6017 10.7727C60.2622 10.4392 59.8023 10.252 59.3228 10.252C58.8434 10.252 58.3835 10.4392 58.044 10.7727L53.8936 14.8617C53.6147 15.1386 53.2829 15.3582 52.9173 15.5077C52.5517 15.6573 52.1596 15.7338 51.7637 15.7329H49.9904C49.9301 15.7267 49.8691 15.733 49.8114 15.7514C49.7538 15.7699 49.7007 15.8001 49.6556 15.84C49.6106 15.88 49.5745 15.9289 49.5499 15.9834C49.5252 16.038 49.5125 16.0971 49.5125 16.1568C49.5125 16.2165 49.5252 16.2756 49.5499 16.3302C49.5745 16.3848 49.6106 16.4336 49.6556 16.4736C49.7007 16.5135 49.7538 16.5437 49.8114 16.5622C49.8691 16.5806 49.9301 16.5869 49.9904 16.5807H51.7637C52.2729 16.5813 52.7772 16.4822 53.2473 16.2892C53.7174 16.0962 54.1439 15.8132 54.5021 15.4566L58.6525 11.3676C58.8306 11.1931 59.0716 11.0952 59.3228 11.0952C59.574 11.0952 59.815 11.1931 59.9932 11.3676L64.1246 15.4425C64.4833 15.7981 64.91 16.0801 65.38 16.2723C65.8501 16.4644 66.3541 16.5629 66.863 16.562H68.2892C68.3955 16.5509 68.4939 16.5015 68.5655 16.4232C68.637 16.345 68.6766 16.2434 68.6766 16.1381C68.6766 16.0327 68.637 15.9312 68.5655 15.8529C68.4939 15.7746 68.3955 15.7252 68.2892 15.7142L68.3082 15.6954Z" fill="#323232"/>
<path id="Vector_27" d="M15.3465 17.7986L11.9425 14.445C11.822 14.3303 11.6609 14.2661 11.4932 14.2661C11.3256 14.2661 11.1645 14.3303 11.044 14.445L7.63047 17.7986C7.31664 18.1017 6.94501 18.3405 6.53702 18.5012C6.12902 18.662 5.69275 18.7416 5.25337 18.7354H4.60205L8.9141 22.9837C9.56044 23.6201 10.4368 23.9775 11.3506 23.9775C12.2644 23.9775 13.1408 23.6201 13.7871 22.9837L18.1134 18.7354H17.7046C16.8237 18.7429 15.9757 18.4061 15.3465 17.7986Z" fill="#323232"/>
<path id="Vector_28" d="M7.63047 7.84075L11.044 11.2084C11.1633 11.3254 11.3249 11.3911 11.4932 11.3911C11.6616 11.3911 11.8231 11.3254 11.9425 11.2084L15.3465 7.8548C15.6603 7.55177 16.032 7.31298 16.44 7.1522C16.848 6.99141 17.2842 6.91183 17.7236 6.91803H18.1325L13.7871 2.63232C13.1408 1.99592 12.2644 1.63843 11.3506 1.63843C10.4368 1.63843 9.56044 1.99592 8.9141 2.63232L4.60205 6.88056H5.27239C5.71023 6.87991 6.1439 6.96439 6.54854 7.12916C6.95319 7.29393 7.32085 7.53574 7.63047 7.84075Z" fill="#323232"/>
<path id="Vector_29" d="M19.0787 7.84091C19.02 7.86552 18.957 7.87826 18.8933 7.87838H17.7047C17.0867 7.88338 16.495 8.1253 16.055 8.55285L12.651 11.9065C12.4995 12.0563 12.3195 12.1752 12.1212 12.2563C11.923 12.3374 11.7104 12.3792 11.4957 12.3792C11.2811 12.3792 11.0685 12.3374 10.8703 12.2563C10.672 12.1752 10.492 12.0563 10.3405 11.9065L6.92221 8.5388C6.48145 8.11297 5.88983 7.87276 5.27251 7.86901H3.80347C3.74315 7.86601 3.68374 7.85336 3.62756 7.83154L1.008 10.417C0.361759 11.0546 -0.0012207 11.9188 -0.0012207 12.8198C-0.0012207 13.7209 0.361759 14.5851 1.008 15.2226L3.63231 17.7988C3.68713 17.7791 3.74515 17.7696 3.80347 17.7706H5.26775C5.88507 17.7669 6.4767 17.5267 6.91746 17.1009L10.331 13.7332C10.643 13.4402 11.0576 13.2768 11.4886 13.2768C11.9197 13.2768 12.3342 13.4402 12.6463 13.7332L16.0502 17.0868C16.4902 17.5144 17.082 17.7563 17.7 17.7613H18.8885C18.9522 17.7614 19.0153 17.7741 19.0739 17.7988L21.6887 15.2226C22.335 14.5851 22.6979 13.7209 22.6979 12.8198C22.6979 11.9188 22.335 11.0546 21.6887 10.417L19.0787 7.84091Z" fill="#323232"/>
<path id="Vector_30" d="M31.8532 21.1056C31.6282 21.1189 31.4051 21.155 31.1876 21.2133V21.143H31.0735V22.8011H31.2161V22.3327C31.3822 22.3846 31.5553 22.4114 31.7296 22.4123C31.8943 22.4127 32.0569 22.3758 32.205 22.3046C32.2959 22.2487 32.3695 22.1694 32.4181 22.0754C32.4667 21.9813 32.4884 21.8759 32.4807 21.7707C32.4897 21.6759 32.4768 21.5803 32.4431 21.4911C32.4093 21.4019 32.3556 21.3213 32.2858 21.2554C32.1644 21.1562 32.0109 21.103 31.8532 21.1056ZM31.701 22.2578C31.5391 22.258 31.3784 22.2311 31.2256 22.1782V21.3397C31.4306 21.285 31.641 21.252 31.8532 21.2414C32.1717 21.2414 32.3286 21.396 32.3286 21.7472C32.3286 22.0985 32.1194 22.2578 31.6915 22.2578H31.701Z" fill="#323232"/>
<path id="Vector_31" d="M34.0924 21.2365C33.9226 21.1502 33.7344 21.1052 33.5433 21.1052C33.3523 21.1052 33.164 21.1502 32.9942 21.2365C32.9181 21.2975 32.8584 21.3759 32.8203 21.4649C32.7821 21.5539 32.7668 21.6508 32.7755 21.747C32.7655 21.8434 32.7802 21.9407 32.8185 22.0299C32.8567 22.1192 32.9171 22.1975 32.9942 22.2576C33.1602 22.3556 33.3526 22.4013 33.5457 22.3887C33.7375 22.4041 33.9293 22.3581 34.0924 22.2576C34.1629 22.1919 34.2191 22.1128 34.2575 22.025C34.2959 21.9372 34.3156 21.8426 34.3156 21.747C34.3156 21.6515 34.2959 21.5569 34.2575 21.4691C34.2191 21.3813 34.1629 21.3022 34.0924 21.2365ZM33.5457 22.2576C33.1178 22.2576 32.9277 22.0983 32.9277 21.7377C32.9277 21.377 33.1178 21.2365 33.5457 21.2365C33.9736 21.2365 34.159 21.4004 34.159 21.7564C34.159 22.1124 33.9688 22.2576 33.5457 22.2576Z" fill="#323232"/>
<path id="Vector_32" d="M36.1844 22.1593H36.1748L35.7042 21.1382H35.5758L35.1147 22.1593H35.1052L34.682 21.1382H34.5251L35.0338 22.356H35.1622L35.6281 21.349H35.6424L36.1178 22.356H36.2462L36.7549 21.1382H36.598L36.1844 22.1593Z" fill="#323232"/>
<path id="Vector_33" d="M38.1668 21.2271C38.0239 21.1414 37.8586 21.099 37.6914 21.1054C37.5236 21.099 37.3577 21.1431 37.216 21.2318C37.0766 21.364 36.9947 21.5443 36.9876 21.7348C36.9805 21.9253 37.0487 22.111 37.1779 22.2529C37.326 22.3595 37.5091 22.408 37.6914 22.3887C37.9104 22.3831 38.1283 22.358 38.3427 22.3138V22.1873C38.1327 22.2282 37.9196 22.2517 37.7057 22.2576C37.2302 22.2576 37.1447 22.0328 37.1399 21.7892H38.3998C38.4138 21.6836 38.3996 21.5763 38.3588 21.4778C38.318 21.3792 38.2518 21.2929 38.1668 21.2271ZM37.1209 21.658C37.1209 21.4051 37.2778 21.2365 37.6724 21.2365C38.067 21.2365 38.2144 21.3817 38.2286 21.658H37.1209Z" fill="#323232"/>
<path id="Vector_34" d="M38.9226 21.213V21.1427H38.8037V22.3558H38.9511V21.3394C39.1384 21.2786 39.3339 21.2454 39.5311 21.2411H39.5644V21.1052C39.3461 21.1087 39.1297 21.1451 38.9226 21.213Z" fill="#323232"/>
<path id="Vector_35" d="M40.8862 21.2271C40.7431 21.1419 40.5779 21.0996 40.4108 21.1053C40.243 21.099 40.0772 21.1431 39.9354 21.2318C39.8588 21.2938 39.7981 21.3728 39.7584 21.4624C39.7188 21.5519 39.7012 21.6495 39.7072 21.747C39.6991 21.8399 39.7119 21.9335 39.7448 22.0209C39.7777 22.1084 39.8298 22.1876 39.8974 22.2529C40.0454 22.3595 40.2285 22.408 40.4108 22.3887C40.6282 22.3831 40.8446 22.358 41.0574 22.3138V22.1873C40.8475 22.2287 40.6343 22.2522 40.4203 22.2576C39.9449 22.2576 39.8593 22.0327 39.8546 21.7892H41.1192C41.1332 21.6836 41.1191 21.5763 41.0782 21.4778C41.0374 21.3792 40.9712 21.2929 40.8862 21.2271ZM39.8356 21.658C39.8641 21.4051 39.9972 21.2365 40.3918 21.2365C40.7864 21.2365 40.9338 21.3817 40.9433 21.658H39.8356Z" fill="#323232"/>
<path id="Vector_36" d="M42.669 21.185C42.5038 21.1359 42.3327 21.1091 42.1603 21.1054C41.9869 21.1009 41.8152 21.1396 41.6611 21.2178C41.5711 21.2732 41.4982 21.3518 41.4505 21.4451C41.4027 21.5384 41.3818 21.6429 41.3901 21.7471C41.3798 21.8415 41.3916 21.9371 41.4245 22.0264C41.4575 22.1157 41.5108 22.1964 41.5802 22.2623C41.7062 22.3542 41.8612 22.399 42.0176 22.3887C42.2427 22.3757 42.4658 22.3396 42.6832 22.281V22.356H42.7973V20.6089H42.6547L42.669 21.185ZM42.669 22.1592C42.4587 22.2113 42.2437 22.2427 42.0271 22.2529C41.7086 22.2529 41.5517 22.0983 41.5517 21.7471C41.5517 21.3958 41.7514 21.2365 42.1793 21.2365C42.3415 21.2378 42.5022 21.2663 42.6547 21.3208L42.669 22.1592Z" fill="#323232"/>
<path id="Vector_37" d="M44.9368 21.1054C44.7169 21.1195 44.4988 21.154 44.2854 21.2084V20.6089H44.1428V22.3372H44.2379V22.2763C44.4153 22.3369 44.6016 22.3686 44.7894 22.37C44.9541 22.3703 45.1168 22.3335 45.2648 22.2623C45.3552 22.2062 45.4282 22.1267 45.476 22.0326C45.5237 21.9385 45.5444 21.8332 45.5358 21.7283C45.5454 21.6339 45.5333 21.5385 45.5003 21.4494C45.4674 21.3602 45.4145 21.2794 45.3456 21.2131C45.225 21.134 45.0814 21.0962 44.9368 21.1054ZM44.7846 22.2576C44.6223 22.2577 44.4613 22.2291 44.3092 22.1733V21.3396C44.5173 21.2842 44.7309 21.2512 44.9463 21.2412C45.2696 21.2412 45.4217 21.3958 45.4217 21.7471C45.4217 22.0983 45.2078 22.2576 44.7846 22.2576Z" fill="#323232"/>
<path id="Vector_38" d="M46.4532 22.1876L45.9018 21.1431H45.7354L46.3819 22.3562L46.3344 22.4499C46.3081 22.5283 46.2559 22.5959 46.1861 22.6417C46.1163 22.6875 46.0329 22.709 45.9493 22.7028H45.7639V22.8339H45.9445C46.0548 22.8423 46.1648 22.8148 46.2576 22.7556C46.3503 22.6963 46.4208 22.6086 46.458 22.5061L47.1521 21.1431H46.9905L46.4532 22.1876Z" fill="#323232"/>
<path id="Vector_39" d="M49.6053 21.5173C49.6838 21.4935 49.7521 21.4448 49.7994 21.3786C49.8467 21.3125 49.8704 21.2328 49.8668 21.152C49.8725 21.087 49.8594 21.0218 49.8292 20.9638C49.7989 20.9058 49.7526 20.8574 49.6957 20.8241C49.4741 20.7246 49.229 20.6873 48.9873 20.7164H48.2742V22.3651H49.0063C49.2707 22.3981 49.5391 22.3576 49.7812 22.248C49.8395 22.2146 49.8869 22.1656 49.918 22.1068C49.9491 22.0479 49.9627 21.9816 49.9571 21.9154C49.9637 21.8168 49.9304 21.7196 49.8645 21.645C49.7986 21.5704 49.7054 21.5245 49.6053 21.5173ZM48.6545 20.974H49.0443C49.3344 20.974 49.5198 20.974 49.5198 21.1848C49.5198 21.3955 49.3914 21.4049 49.0443 21.4049H48.6545V20.974ZM49.1299 22.0887H48.6545V21.6625H49.1299C49.4152 21.6625 49.6053 21.6625 49.6053 21.8733C49.6053 22.0841 49.4437 22.0887 49.1299 22.0887Z" fill="#323232"/>
<path id="Vector_40" d="M51.5927 21.2175C51.417 21.1279 51.2193 21.089 51.0222 21.1051C50.8605 21.1051 50.6656 21.1051 50.4897 21.1051V21.3534C50.6466 21.3534 50.813 21.3534 50.9651 21.3534C51.3122 21.3534 51.4405 21.419 51.4405 21.6063C51.2979 21.6063 51.1268 21.6063 50.9936 21.6063C50.8322 21.5944 50.6701 21.6168 50.5182 21.6719C50.4622 21.7004 50.4142 21.7421 50.3786 21.7934C50.343 21.8447 50.3209 21.9039 50.3143 21.9657C50.3077 22.0274 50.3168 22.0899 50.3408 22.1473C50.3648 22.2048 50.4029 22.2555 50.4517 22.2948C50.5633 22.3609 50.6926 22.3919 50.8225 22.3838C51.0494 22.3735 51.2743 22.3373 51.4928 22.2761V22.351H51.7638V21.6344C51.7731 21.5564 51.7622 21.4773 51.7323 21.4044C51.7024 21.3316 51.6544 21.2673 51.5927 21.2175ZM51.4168 22.0794C51.2488 22.1223 51.0767 22.1474 50.9033 22.1543C50.7084 22.1543 50.6371 22.0934 50.6371 21.9904C50.6371 21.8873 50.7227 21.8264 50.9746 21.8264C51.1268 21.8264 51.2741 21.8264 51.4168 21.8264V22.0794Z" fill="#323232"/>
<path id="Vector_41" d="M53.1567 21.1054C52.9327 21.1171 52.7109 21.1549 52.4958 21.2178V21.1429H52.2153V22.356H52.5576V21.4614C52.7223 21.4174 52.8912 21.3907 53.0616 21.3817C53.266 21.3817 53.3801 21.4614 53.3801 21.6815V22.356H53.7224V21.6112C53.7301 21.5422 53.7222 21.4724 53.6992 21.4068C53.6762 21.3412 53.6386 21.2814 53.5893 21.2318C53.4666 21.1371 53.3119 21.0918 53.1567 21.1054Z" fill="#323232"/>
<path id="Vector_42" d="M54.3832 21.7472C54.3832 21.4708 54.5401 21.3678 54.8586 21.3678C54.9905 21.3686 55.1222 21.3764 55.2532 21.3912V21.1289C55.1011 21.1289 54.9632 21.1289 54.8206 21.1289C54.6316 21.1154 54.4429 21.1578 54.2786 21.2507C54.1947 21.3086 54.1273 21.3869 54.0832 21.478C54.039 21.5691 54.0196 21.6699 54.0266 21.7706C54.0169 21.8655 54.0295 21.9612 54.0633 22.0506C54.0971 22.1399 54.1512 22.2204 54.2215 22.2858C54.3599 22.3819 54.5283 22.4267 54.697 22.4123C54.8989 22.4065 55.0997 22.3798 55.296 22.3327V22.061C55.1254 22.0961 54.952 22.1164 54.7778 22.1219C54.4973 22.1219 54.3832 22.0142 54.3832 21.7472Z" fill="#323232"/>
<path id="Vector_43" d="M56.8934 21.2365C56.7084 21.1502 56.5062 21.1055 56.3015 21.1055C56.0968 21.1055 55.8946 21.1502 55.7096 21.2365C55.6289 21.2941 55.5649 21.3716 55.524 21.4612C55.4832 21.5508 55.4668 21.6493 55.4767 21.7471C55.4669 21.8454 55.4833 21.9446 55.5241 22.035C55.5649 22.1253 55.6289 22.2036 55.7096 22.2623C55.8907 22.3612 56.0975 22.4052 56.3039 22.3887C56.5087 22.4035 56.7134 22.3595 56.8934 22.2623C56.9726 22.2024 57.0351 22.1238 57.075 22.0337C57.1149 21.9436 57.1309 21.8449 57.1216 21.7471C57.132 21.6497 57.1164 21.5515 57.0763 21.4619C57.0363 21.3724 56.9733 21.2947 56.8934 21.2365ZM56.3039 22.1358C55.9711 22.1358 55.8285 22.014 55.8285 21.7377C55.8285 21.4613 55.9758 21.363 56.3039 21.363C56.6319 21.363 56.7793 21.4801 56.7793 21.7564C56.7793 22.0328 56.6272 22.1358 56.3039 22.1358Z" fill="#323232"/>
<path id="Vector_44" d="M58.6288 21.5456C58.6288 21.1663 58.8332 20.9883 59.3087 20.9883C59.4798 20.9883 59.6985 20.9883 59.8792 20.9883V20.7026C59.67 20.7026 59.4798 20.6744 59.2944 20.6744C59.0482 20.6591 58.8026 20.7127 58.586 20.829C58.4745 20.9089 58.3851 21.0151 58.3262 21.1378C58.2672 21.2606 58.2405 21.396 58.2485 21.5316C58.2358 21.6577 58.2528 21.785 58.2981 21.9036C58.3435 22.0222 58.4159 22.1289 58.51 22.2154C58.6822 22.3419 58.8947 22.4034 59.109 22.3887C59.3796 22.381 59.6488 22.3465 59.9124 22.2857V22.014C59.6694 22.0725 59.4208 22.1055 59.1708 22.1124C58.819 22.089 58.6288 21.9157 58.6288 21.5456Z" fill="#323232"/>
<path id="Vector_45" d="M61.4575 21.232C61.2914 21.1474 61.1072 21.1033 60.9203 21.1033C60.7333 21.1033 60.5491 21.1474 60.383 21.232C60.3062 21.2928 60.2453 21.3709 60.2056 21.4598C60.1658 21.5487 60.1484 21.6457 60.1548 21.7426C60.1459 21.836 60.1589 21.9301 60.1926 22.0178C60.2264 22.1055 60.2802 22.1844 60.3498 22.2484C60.5024 22.353 60.6876 22.4011 60.8727 22.3843C61.1217 22.3768 61.3696 22.3502 61.6144 22.3046V22.0658C61.3977 22.1042 61.1784 22.1261 60.9583 22.1313C60.6112 22.1313 60.5114 22.0095 60.4829 21.8222H61.6524C61.6714 21.5786 61.6572 21.3679 61.4575 21.232ZM60.5066 21.6114C60.5066 21.4241 60.6398 21.3257 60.925 21.3257C61.2103 21.3257 61.3291 21.4147 61.3386 21.6114H60.5066Z" fill="#323232"/>
<path id="Vector_46" d="M62.9931 21.1054C62.7691 21.1171 62.5473 21.1549 62.3323 21.2178V21.1429H62.0518V22.356H62.3941V21.4614C62.5587 21.4174 62.7276 21.3907 62.898 21.3817C63.1024 21.3817 63.2165 21.4614 63.2165 21.6815V22.356H63.5588V21.6112C63.5666 21.5422 63.5587 21.4724 63.5356 21.4068C63.5126 21.3412 63.4751 21.2814 63.4257 21.2318C63.3031 21.1371 63.1484 21.0918 62.9931 21.1054Z" fill="#323232"/>
<path id="Vector_47" d="M64.4147 22.0142C64.385 21.9413 64.372 21.863 64.3766 21.7847V21.3912H64.852V21.143H64.3766V20.7729H64.0724L64.0391 21.143H63.7871V21.3912H64.0391V21.8596C64.0302 21.9891 64.0617 22.1182 64.1294 22.2296C64.1754 22.2897 64.2362 22.3372 64.3062 22.3676C64.3761 22.3979 64.4527 22.4101 64.5288 22.4029C64.6486 22.3981 64.7678 22.384 64.8853 22.3608V22.1172C64.8035 22.1301 64.7209 22.1379 64.6381 22.1406C64.592 22.1463 64.5452 22.1371 64.5049 22.1143C64.4646 22.0914 64.4329 22.0563 64.4147 22.0142Z" fill="#323232"/>
<path id="Vector_48" d="M65.4939 21.2176V21.1426H65.2134V22.3558H65.5604V21.4565C65.7158 21.4171 65.8754 21.3966 66.0359 21.3956H66.1547V21.1099H66.0834C65.8828 21.1192 65.6845 21.1554 65.4939 21.2176Z" fill="#323232"/>
<path id="Vector_49" d="M67.5714 21.2175C67.3958 21.1279 67.198 21.089 67.0009 21.1051C66.8393 21.1051 66.6444 21.1051 66.4685 21.1051V21.3534C66.6253 21.3534 66.7917 21.3534 66.9439 21.3534C67.2909 21.3534 67.4193 21.419 67.4193 21.6063C67.2767 21.6063 67.1055 21.6063 66.9724 21.6063C66.811 21.5944 66.6489 21.6168 66.497 21.6719C66.4409 21.7004 66.393 21.7421 66.3574 21.7934C66.3218 21.8447 66.2997 21.9039 66.2931 21.9657C66.2865 22.0274 66.2956 22.0899 66.3196 22.1473C66.3435 22.2048 66.3816 22.2555 66.4304 22.2948C66.542 22.3609 66.6713 22.3919 66.8013 22.3838C67.0282 22.3735 67.2531 22.3373 67.4716 22.2761V22.351H67.7426V21.6344C67.7518 21.5564 67.741 21.4773 67.7111 21.4044C67.6812 21.3316 67.6332 21.2673 67.5714 21.2175ZM67.3955 22.0794C67.2276 22.1223 67.0554 22.1474 66.8821 22.1543C66.6871 22.1543 66.6158 22.0934 66.6158 21.9904C66.6158 21.8873 66.7014 21.8264 66.9534 21.8264C67.1055 21.8264 67.2529 21.8264 67.3955 21.8264V22.0794Z" fill="#323232"/>
<path id="Vector_50" d="M68.5269 20.6277H68.1846V22.356H68.5269V20.6277Z" fill="#323232"/>
<path id="Vector_51" d="M113.349 1.63452H84.192C83.8994 1.63452 83.6097 1.69137 83.3394 1.80183C83.0692 1.91228 82.8237 2.07416 82.617 2.27821C82.4104 2.48226 82.2466 2.72446 82.135 2.99095C82.0235 3.25744 81.9664 3.54299 81.967 3.83124V21.8078C81.9664 22.0959 82.0235 22.3812 82.1351 22.6474C82.2467 22.9136 82.4106 23.1555 82.6173 23.3592C82.8241 23.5629 83.0696 23.7243 83.3398 23.8343C83.61 23.9442 83.8996 24.0005 84.192 23.9999H113.349C113.642 24.0005 113.931 23.9442 114.202 23.8343C114.472 23.7243 114.717 23.5629 114.924 23.3592C115.131 23.1555 115.295 22.9136 115.406 22.6474C115.518 22.3812 115.575 22.0959 115.574 21.8078V3.83124C115.575 3.54299 115.518 3.25744 115.406 2.99095C115.295 2.72446 115.131 2.48226 114.924 2.27821C114.718 2.07416 114.472 1.91228 114.202 1.80183C113.932 1.69137 113.642 1.63452 113.349 1.63452ZM114.148 21.8078C114.148 22.0165 114.064 22.2167 113.914 22.3642C113.764 22.5118 113.561 22.5947 113.349 22.5947H84.192C84.0871 22.5947 83.9833 22.5744 83.8864 22.5348C83.7895 22.4953 83.7014 22.4373 83.6272 22.3642C83.5531 22.2912 83.4942 22.2044 83.4541 22.109C83.414 22.0135 83.3933 21.9112 83.3933 21.8078V11.3582H114.148V21.8078ZM83.3933 6.79143V3.83124C83.3933 3.62211 83.4773 3.42148 83.6269 3.27317C83.7766 3.12485 83.9797 3.04091 84.192 3.03967H113.349C113.562 3.04091 113.765 3.12485 113.914 3.27317C114.064 3.42148 114.148 3.62211 114.148 3.83124V6.79143H83.3933Z" fill="#323232"/>
<path id="Vector_52" d="M85.1619 15.7469H102.477C102.666 15.7469 102.847 15.6729 102.981 15.5412C103.115 15.4094 103.19 15.2307 103.19 15.0444C103.19 14.858 103.115 14.6793 102.981 14.5476C102.847 14.4158 102.666 14.3418 102.477 14.3418H85.1619C84.9727 14.3418 84.7913 14.4158 84.6576 14.5476C84.5239 14.6793 84.4487 14.858 84.4487 15.0444C84.4487 15.2307 84.5239 15.4094 84.6576 15.5412C84.7913 15.6729 84.9727 15.7469 85.1619 15.7469Z" fill="#323232"/>
<path id="Vector_53" d="M85.1619 19.9576H90.2108C90.3999 19.9576 90.5813 19.8836 90.7151 19.7519C90.8488 19.6201 90.9239 19.4414 90.9239 19.2551C90.9239 19.0687 90.8488 18.89 90.7151 18.7583C90.5813 18.6265 90.3999 18.5525 90.2108 18.5525H85.1619C84.9727 18.5525 84.7913 18.6265 84.6576 18.7583C84.5239 18.89 84.4487 19.0687 84.4487 19.2551C84.4487 19.4414 84.5239 19.6201 84.6576 19.7519C84.7913 19.8836 84.9727 19.9576 85.1619 19.9576Z" fill="#323232"/>
</g>
</g>
</g>
<defs>
<clipPath id="clip0_164_1350">
<rect width="176" height="24" fill="white"/>
</clipPath>
</defs>
</svg>
