<svg width="36" height="36" viewBox="0 0 36 36" fill="none" xmlns="http://www.w3.org/2000/svg">
<path id="Star 3" d="M11.9378 1.39078C12.4485 0.168883 13.9843 -0.228296 15.0233 0.592837L23.6587 7.41742C23.8016 7.53042 23.9594 7.62335 24.1276 7.69363L34.283 11.9377C35.5049 12.4483 35.9021 13.9841 35.0809 15.0231L28.2564 23.6585C28.1434 23.8015 28.0504 23.9592 27.9801 24.1274L23.7361 34.2828C23.2255 35.5047 21.6897 35.9019 20.6507 35.0808L12.0153 28.2562C11.8723 28.1432 11.7145 28.0503 11.5464 27.98L1.39096 23.7359C0.169056 23.2253 -0.228123 21.6895 0.593011 20.6505L7.41759 12.0151C7.5306 11.8721 7.62353 11.7144 7.6938 11.5462L11.9378 1.39078Z" fill="#E0D1B0"/>
</svg>
