<svg width="41" height="41" viewBox="0 0 41 41" fill="none" xmlns="http://www.w3.org/2000/svg">
<path id="Star 1" d="M22.6908 1.42907C24.2054 0.143725 26.5284 0.658736 27.3579 2.46374L32.24 13.0878C32.3542 13.3362 32.5018 13.5678 32.6786 13.7762L40.244 22.6908C41.5293 24.2054 41.0143 26.5285 39.2093 27.3579L28.5853 32.2401C28.3369 32.3542 28.1053 32.5018 27.8968 32.6787L18.9822 40.244C17.4676 41.5294 15.1446 41.0144 14.3151 39.2094L9.433 28.5853C9.31885 28.3369 9.17128 28.1053 8.99439 27.8969L1.42903 18.9823C0.143688 17.4677 0.658699 15.1446 2.4637 14.3152L13.0877 9.43303C13.3361 9.31888 13.5678 9.17131 13.7762 8.99443L22.6908 1.42907Z" fill="#E0D1B0"/>
</svg>
