<svg width="18" height="18" viewBox="0 0 18 18" fill="none" xmlns="http://www.w3.org/2000/svg">
<path id="Star 2" d="M5.64362 1.08225C6.24856 -0.0958146 7.81076 -0.371274 8.78214 0.528848L11.8819 3.40123C12.0156 3.5251 12.1656 3.63012 12.3277 3.71338L16.087 5.6438C17.2651 6.24874 17.5406 7.81094 16.6405 8.78232L13.7681 11.8821C13.6442 12.0158 13.5392 12.1658 13.4559 12.3279L11.5255 16.0872C10.9206 17.2653 9.35836 17.5408 8.38698 16.6406L5.28721 13.7683C5.15352 13.6444 5.00354 13.5394 4.84141 13.4561L1.08207 11.5257C-0.0959955 10.9207 -0.371454 9.35854 0.528667 8.38716L3.40105 5.28739C3.52492 5.15371 3.62994 5.00372 3.71319 4.84159L5.64362 1.08225Z" fill="#E0D1B0"/>
</svg>
