<svg width="54" height="54" viewBox="0 0 54 54" fill="none" xmlns="http://www.w3.org/2000/svg">
<g id="flaticon_6408858 (1) 1" clip-path="url(#clip0_192_268)">
<g id="Group">
<path id="Vector" d="M37.2703 24.3339C38.2954 23.2217 38.9305 21.7535 38.9513 20.1458C38.9733 18.4527 38.3174 16.8207 37.1414 15.615V6.74069C39.3312 7.23632 41.0061 9.03224 41.3371 11.2655L43.0726 22.9739C42.8544 23.0091 42.6157 23.0597 42.3684 23.1342C41.0897 23.5191 40.2643 24.3209 39.9812 25.4531L41.495 25.8314C41.5479 25.6195 41.7091 24.9749 42.7841 24.6387C43.1512 24.5239 43.5087 24.4824 43.7457 24.4676L53.1515 30.5638L54 29.2544L44.6858 23.2176L42.8804 11.0368C42.443 8.08477 40.1792 5.72655 37.2475 5.16882L31.6849 4.11058V0.263184H22.2988V4.11079L16.7508 5.16789C15.528 5.40078 14.3864 5.95632 13.4492 6.77418L14.4751 7.94965C15.1597 7.35219 15.9856 6.93759 16.8716 6.73903V15.6022C15.6872 16.8094 15.0266 18.446 15.0487 20.1457C15.0693 21.7399 15.6944 23.1963 16.7041 24.3051C16.1264 25.0719 15.0699 26.5911 14.138 28.5644C13.9644 28.932 13.8039 29.2983 13.6555 29.6631L0.14917 34.7541L0.699511 36.214L12.9869 31.5824C12.2251 34.2164 12.1502 36.7305 12.7809 38.982C12.4658 40.4177 12.3062 41.8579 12.3062 43.2661C12.3062 44.6031 12.3444 46.1062 12.4198 47.7332L13.9783 47.6611C13.9184 46.3672 13.8827 45.1563 13.871 44.0462H15.777C18.9751 44.0462 21.9607 45.7663 23.569 48.5353C24.159 49.5509 25.1638 50.2414 26.2844 50.4371V53.6747H27.8446V50.4138C28.9132 50.1891 29.8637 49.5119 30.431 48.5352C32.0393 45.7663 35.0249 44.0462 38.223 44.0462H39.9173C39.8891 46.8089 39.7186 50.4609 39.467 53.6127L41.0223 53.7368C41.3014 50.2409 41.4817 46.1309 41.4817 43.2661C41.4817 41.906 41.3378 40.5157 41.0539 39.13C41.4377 37.8483 41.6005 36.487 41.5379 35.0801L39.9794 35.1494C40.0259 36.1968 39.9281 37.2116 39.6934 38.1771H36.7893V37.3326H35.2291V38.1771H18.9389V37.3326H17.3787V38.1771H14.185C13.5397 35.4504 14.1348 32.6869 15.056 30.3822C15.2122 30.4926 15.3648 30.6103 15.5107 30.7387L16.5416 29.5675C16.2757 29.3335 15.9943 29.122 15.701 28.9339C16.5022 27.3011 17.3795 26.0194 17.8904 25.3285C18.9228 26.0211 20.1653 26.4274 21.4973 26.4274H32.5026C33.8215 26.4274 35.0531 26.0297 36.0793 25.3495C36.6006 26.0468 37.5041 27.3582 38.3117 29.0361C38.0742 29.1976 37.8451 29.3751 37.6265 29.5675L38.6573 30.7387C38.7515 30.6559 38.8482 30.5775 38.9467 30.5021C39.3242 31.4805 39.6393 32.5405 39.8213 33.6484L41.3609 33.3957C41.2567 32.7608 41.1133 32.1425 40.9431 31.545L53.3 36.2138L53.8514 34.7544L40.2828 29.6279C39.2841 27.1519 37.953 25.2324 37.2703 24.3339ZM23.859 5.40182V1.8234H30.1247V5.40202L32.4608 5.84637V15.4025C31.6704 15.8097 29.7698 16.6899 27.7801 16.8876V14.5716H26.2199V16.8873C24.2385 16.6887 22.3412 15.8082 21.5522 15.4012V5.84128L23.859 5.40182ZM29.082 47.7515C28.6578 48.4817 27.8847 48.9355 27.0645 48.9355H26.9355C26.1153 48.9355 25.3423 48.4818 24.9181 47.7516C23.0315 44.5035 19.5289 42.4859 15.7769 42.4859H13.8858C13.9265 41.578 14.0372 40.6583 14.2182 39.7373H39.5831C39.7574 40.6577 39.8635 41.5777 39.9028 42.4859H38.223C34.4711 42.4859 30.9684 44.5036 29.082 47.7515ZM21.4974 24.8673C18.8356 24.8673 16.6426 22.7402 16.6087 20.1255C16.591 18.753 17.1626 17.4351 18.1774 16.5097L18.4318 16.2777V6.43583L19.992 6.13855V16.3109L20.3755 16.5373C20.5104 16.617 23.7172 18.4884 27 18.4884C30.2956 18.4884 33.5024 16.6187 33.6373 16.5393L34.021 16.3128V6.14334L35.5812 6.44019V16.2879L35.834 16.5197C36.8415 17.4441 37.4091 18.7583 37.3914 20.1257C37.3576 22.7403 35.1645 24.8674 32.5027 24.8674L21.4974 24.8673Z" fill="url(#paint0_linear_192_268)"/>
<path id="Vector_2" d="M14.0618 49.2593L12.5042 49.3497C12.5255 49.7162 12.5481 50.133 12.5716 50.5696C12.6301 51.6476 12.6961 52.8693 12.7654 53.7368L14.3207 53.6127C14.253 52.7651 14.1875 51.5538 14.1295 50.4852C14.1059 50.0465 14.0833 49.6276 14.0618 49.2593Z" fill="url(#paint1_linear_192_268)"/>
<path id="Vector_3" d="M10.2633 24.4617C10.4861 24.4692 10.9093 24.5023 11.3451 24.6385C12.42 24.9746 12.5812 25.6194 12.6341 25.8313L14.1479 25.453C13.8648 24.3208 13.0395 23.5189 11.7607 23.1341C11.4647 23.045 11.1806 22.9897 10.9304 22.955L12.6633 11.2641C12.7864 10.4336 13.0896 9.66232 13.5644 8.97177L12.2789 8.08765C11.6767 8.96324 11.2759 9.98258 11.1199 11.0354L9.3143 23.2176L0 29.2544L0.848551 30.5637L10.2633 24.4617Z" fill="url(#paint2_linear_192_268)"/>
<path id="Vector_4" d="M33.3507 37.6513C33.2613 37.06 33.1196 36.5002 32.9297 35.9873L31.4666 36.5289C31.6196 36.9424 31.7346 37.3985 31.8082 37.8849L33.3507 37.6513Z" fill="url(#paint3_linear_192_268)"/>
<path id="Vector_5" d="M31.0625 33.0913L29.988 34.2227C30.3072 34.5258 30.599 34.882 30.8553 35.2815L32.1685 34.4392C31.8446 33.9342 31.4724 33.4806 31.0625 33.0913Z" fill="url(#paint4_linear_192_268)"/>
<path id="Vector_6" d="M28.8988 33.44L29.6261 32.0598C29.1183 31.7921 28.53 31.5943 27.9246 31.4878L27.6542 33.0244C28.1021 33.1032 28.5325 33.247 28.8988 33.44Z" fill="url(#paint5_linear_192_268)"/>
<path id="Vector_7" d="M25.1266 33.4399C25.4979 33.2442 25.9167 33.1044 26.3712 33.0244L26.1006 31.4878C25.4864 31.596 24.9139 31.7885 24.3991 32.0598L25.1266 33.4399Z" fill="url(#paint6_linear_192_268)"/>
<path id="Vector_8" d="M24.0372 34.2229L22.963 33.0913C22.5534 33.4801 22.1812 33.9336 21.8569 34.439L23.1701 35.2818C23.4268 34.8817 23.7184 34.5255 24.0372 34.2229Z" fill="url(#paint7_linear_192_268)"/>
<path id="Vector_9" d="M20.6747 37.6512L22.2173 37.8848C22.2909 37.3985 22.4058 36.9423 22.5589 36.5287L21.0956 35.9873C20.9058 36.5003 20.7641 37.0601 20.6747 37.6512Z" fill="url(#paint8_linear_192_268)"/>
<path id="Vector_10" d="M17.3787 35.7784L18.9389 35.7663C18.9379 35.6385 18.9384 35.5107 18.9389 35.3829C18.9405 34.98 18.942 34.5635 18.8993 34.1357L17.3467 34.2911C17.3815 34.6383 17.3801 34.997 17.3787 35.3768C17.3782 35.5108 17.3776 35.6447 17.3787 35.7784Z" fill="url(#paint9_linear_192_268)"/>
<path id="Vector_11" d="M16.4171 31.7587C16.6755 32.1339 16.8871 32.5408 17.0456 32.9681L18.5082 32.4252C18.3049 31.877 18.0336 31.3549 17.7018 30.8735L16.4171 31.7587Z" fill="url(#paint10_linear_192_268)"/>
<path id="Vector_12" d="M35.2687 34.1357C35.226 34.5627 35.2275 34.9787 35.2291 35.3808C35.2296 35.5093 35.2301 35.6378 35.2291 35.7661L36.7893 35.7787C36.7904 35.6441 36.7898 35.5095 36.7893 35.3748C36.7879 34.9956 36.7865 34.6377 36.8213 34.2911L35.2687 34.1357Z" fill="url(#paint11_linear_192_268)"/>
<path id="Vector_13" d="M37.751 31.7585L36.466 30.8735C36.1342 31.3553 35.8628 31.8774 35.6595 32.4252L37.1224 32.9679C37.2808 32.541 37.4923 32.1341 37.751 31.7585Z" fill="url(#paint12_linear_192_268)"/>
</g>
</g>
<defs>
<linearGradient id="paint0_linear_192_268" x1="27.0746" y1="1.92148" x2="51.1022" y2="65.6663" gradientUnits="userSpaceOnUse">
<stop stop-color="#E0D1B0"/>
<stop offset="1" stop-color="#BDAA80"/>
</linearGradient>
<linearGradient id="paint1_linear_192_268" x1="13.4125" y1="49.3981" x2="16.4537" y2="52.6485" gradientUnits="userSpaceOnUse">
<stop stop-color="#E0D1B0"/>
<stop offset="1" stop-color="#BDAA80"/>
</linearGradient>
<linearGradient id="paint2_linear_192_268" x1="7.07393" y1="8.78466" x2="20.606" y2="31.2243" gradientUnits="userSpaceOnUse">
<stop stop-color="#E0D1B0"/>
<stop offset="1" stop-color="#BDAA80"/>
</linearGradient>
<linearGradient id="paint3_linear_192_268" x1="32.4087" y1="36.0462" x2="33.2704" y2="38.3002" gradientUnits="userSpaceOnUse">
<stop stop-color="#E0D1B0"/>
<stop offset="1" stop-color="#BDAA80"/>
</linearGradient>
<linearGradient id="paint4_linear_192_268" x1="31.0783" y1="33.1592" x2="32.0709" y2="35.7626" gradientUnits="userSpaceOnUse">
<stop stop-color="#E0D1B0"/>
<stop offset="1" stop-color="#BDAA80"/>
</linearGradient>
<linearGradient id="paint5_linear_192_268" x1="28.6401" y1="31.5483" x2="29.5154" y2="33.8773" gradientUnits="userSpaceOnUse">
<stop stop-color="#E0D1B0"/>
<stop offset="1" stop-color="#BDAA80"/>
</linearGradient>
<linearGradient id="paint6_linear_192_268" x1="25.3852" y1="31.5483" x2="26.2603" y2="33.8773" gradientUnits="userSpaceOnUse">
<stop stop-color="#E0D1B0"/>
<stop offset="1" stop-color="#BDAA80"/>
</linearGradient>
<linearGradient id="paint7_linear_192_268" x1="22.947" y1="33.1592" x2="23.9399" y2="35.7628" gradientUnits="userSpaceOnUse">
<stop stop-color="#E0D1B0"/>
<stop offset="1" stop-color="#BDAA80"/>
</linearGradient>
<linearGradient id="paint8_linear_192_268" x1="21.6168" y1="36.0462" x2="22.4785" y2="38.3001" gradientUnits="userSpaceOnUse">
<stop stop-color="#E0D1B0"/>
<stop offset="1" stop-color="#BDAA80"/>
</linearGradient>
<linearGradient id="paint9_linear_192_268" x1="18.1431" y1="34.1867" x2="18.9023" y2="36.1259" gradientUnits="userSpaceOnUse">
<stop stop-color="#E0D1B0"/>
<stop offset="1" stop-color="#BDAA80"/>
</linearGradient>
<linearGradient id="paint10_linear_192_268" x1="17.4627" y1="30.9385" x2="18.41" y2="33.4299" gradientUnits="userSpaceOnUse">
<stop stop-color="#E0D1B0"/>
<stop offset="1" stop-color="#BDAA80"/>
</linearGradient>
<linearGradient id="paint11_linear_192_268" x1="36.0249" y1="34.1867" x2="36.7843" y2="36.1261" gradientUnits="userSpaceOnUse">
<stop stop-color="#E0D1B0"/>
<stop offset="1" stop-color="#BDAA80"/>
</linearGradient>
<linearGradient id="paint12_linear_192_268" x1="36.7053" y1="30.9385" x2="37.6523" y2="33.4298" gradientUnits="userSpaceOnUse">
<stop stop-color="#E0D1B0"/>
<stop offset="1" stop-color="#BDAA80"/>
</linearGradient>
<clipPath id="clip0_192_268">
<rect width="54" height="54" fill="white"/>
</clipPath>
</defs>
</svg>
